<?xml version="1.0" encoding="UTF-8" standalone="no"?>
<svg
   id="Layer_2"
   data-name="Layer 2"
   viewBox="0 0 1313.65 237.13"
   version="1.1"
   sodipodi:docname="logo_text_light.svg"
   inkscape:version="1.2.2 (1:1.2.2+202305151914+b0a8486541)"
   xmlns:inkscape="http://www.inkscape.org/namespaces/inkscape"
   xmlns:sodipodi="http://sodipodi.sourceforge.net/DTD/sodipodi-0.dtd"
   xmlns:xlink="http://www.w3.org/1999/xlink"
   xmlns="http://www.w3.org/2000/svg"
   xmlns:svg="http://www.w3.org/2000/svg">
  <sodipodi:namedview
     id="namedview47"
     pagecolor="#ffffff"
     bordercolor="#000000"
     borderopacity="0.25"
     inkscape:showpageshadow="2"
     inkscape:pageopacity="0.0"
     inkscape:pagecheckerboard="0"
     inkscape:deskcolor="#d1d1d1"
     showgrid="false"
     inkscape:zoom="0.32942515"
     inkscape:cx="543.37078"
     inkscape:cy="256.50743"
     inkscape:window-width="1366"
     inkscape:window-height="654"
     inkscape:window-x="0"
     inkscape:window-y="27"
     inkscape:window-maximized="1"
     inkscape:current-layer="Layer_2" />
  <defs
     id="defs26">
    <style
       id="style2">.cls-1{fill:url(#White_Black);}.cls-2{fill:url(#White_Black-2);}.cls-3{fill:url(#White_Black-3);}.cls-4{mask:url(#mask);}.cls-5{mask:url(#mask-2);}.cls-6{mask:url(#mask-3);}.cls-7{fill:#fff;}</style>
    <linearGradient
       id="White_Black"
       x1="-3091.62"
       y1="1087.01"
       x2="-3242.36"
       y2="985.74"
       gradientTransform="translate(-1237.09 -348.5) rotate(-180)"
       gradientUnits="userSpaceOnUse">
      <stop
         offset="0"
         stop-color="#fff"
         id="stop4" />
      <stop
         offset="1"
         stop-color="#231f20"
         id="stop6" />
    </linearGradient>
    <linearGradient
       id="White_Black-2"
       x1="2944.24"
       y1="1429.35"
       x2="2458.42"
       y2="1102.96"
       gradientTransform="translate(-3177.9 -3507.38) rotate(90)"
       xlink:href="#White_Black" />
    <linearGradient
       id="White_Black-3"
       x1="3265.1"
       y1="300.42"
       x2="2779.27"
       y2="-25.97"
       gradientTransform="translate(-7226.66 -1558.39)"
       xlink:href="#White_Black" />
    <mask
       id="mask"
       x="1901.8"
       y="-1460.12"
       width="168.2"
       height="109.01"
       maskUnits="userSpaceOnUse">
      <g
         transform="translate(-0.87 -59.01)"
         id="g13">
        <rect
           class="cls-1"
           x="1907.64"
           y="-1391.65"
           width="158.25"
           height="90.1"
           transform="translate(182.2 235.84) rotate(-7.12)"
           id="rect11" />
      </g>
    </mask>
    <mask
       id="mask-2"
       x="-4497.67"
       y="-1319.24"
       width="351.34"
       height="542.08"
       maskUnits="userSpaceOnUse">
      <g
         transform="translate(-0.87 -59.01)"
         id="g18">
        <rect
           class="cls-2"
           x="-4466.32"
           y="-1244.2"
           width="290.37"
           height="510.03"
           transform="translate(89.28 -543.15) rotate(-7.12)"
           id="rect16" />
      </g>
    </mask>
    <mask
       id="mask-3"
       x="-4659.48"
       y="-1778.77"
       width="542.08"
       height="351.34"
       maskUnits="userSpaceOnUse">
      <g
         transform="translate(-0.87 -59.01)"
         id="g23">
        <rect
           class="cls-3"
           x="-4642.58"
           y="-1689.28"
           width="510.03"
           height="290.37"
           transform="translate(157.54 -555.66) rotate(-7.12)"
           id="rect21" />
      </g>
    </mask>
  </defs>
  <g
     aria-label="Geocerca"
     id="text942"
     style="font-weight:bold;font-size:234.662px;-inkscape-font-specification:'sans-serif, Bold';fill:#ffffff;stroke-width:1.341;fill-opacity:1"
     transform="matrix(0.96942769,0,0,1.2133163,39.596356,-45.094133)">
    <path
       d="m 264.51351,204.72997 q -16.49968,8.02068 -34.25974,12.03101 -17.76006,4.01034 -36.66594,4.01034 -42.73873,0 -67.7174,-23.83286 -24.97867,-23.94744 -24.97867,-64.85288 0,-41.363757 25.43699,-65.082035 25.437,-23.718279 69.66528,-23.718279 17.07258,0 32.65561,3.20827 15.6976,3.208269 29.56191,9.510227 V 91.40931 q -14.32263,-8.135255 -28.53068,-12.145592 -14.09347,-4.010337 -28.30153,-4.010337 -26.35364,0 -40.67627,14.780956 -14.20805,14.666373 -14.20805,42.051243 0,27.15571 13.74973,41.93667 13.74972,14.78096 39.07214,14.78096 6.87486,0 12.71849,-0.80207 5.95822,-0.91665 10.65604,-2.74995 v -33.2285 h -26.92655 v -29.56191 h 68.74864 z"
       id="path1148"
       style="fill:#ffffff;fill-opacity:1" />
    <path
       d="m 429.6248,152.93934 v 11.68726 h -95.90434 q 1.48955,14.43722 10.42687,21.65582 8.93733,7.21861 24.97867,7.21861 12.94766,0 26.46823,-3.78117 13.63514,-3.89576 27.95778,-11.68727 v 31.62437 q -14.5518,5.49989 -29.10359,8.24984 -14.5518,2.86452 -29.10359,2.86452 -34.83264,0 -54.19684,-17.64548 -19.24962,-17.76006 -19.24962,-49.72818 0,-31.39521 18.90588,-49.38443 Q 329.8247,86.024 363.05321,86.024 q 30.2494,0 48.3532,18.21839 18.21839,18.21839 18.21839,48.69695 z m -42.16583,-13.63515 q 0,-11.68727 -6.87486,-18.79129 -6.76028,-7.21861 -17.76006,-7.21861 -11.91643,0 -19.3642,6.76028 -7.44777,6.6457 -9.28107,19.24962 z"
       id="path1150"
       style="fill:#ffffff;fill-opacity:1" />
    <path
       d="m 521.74799,115.35675 q -13.63515,0 -20.85375,9.85397 -7.10403,9.73939 -7.10403,28.18694 0,18.44755 7.10403,28.30152 7.2186,9.73939 20.85375,9.73939 13.40598,0 20.51001,-9.73939 7.10402,-9.85397 7.10402,-28.30152 0,-18.44755 -7.10402,-28.18694 -7.10403,-9.85397 -20.51001,-9.85397 z m 0,-29.33275 q 33.11393,0 51.67606,17.87464 18.67671,17.87465 18.67671,49.49902 0,31.62437 -18.67671,49.49902 -18.56213,17.87464 -51.67606,17.87464 -33.22851,0 -52.0198,-17.87464 -18.67671,-17.87465 -18.67671,-49.49902 0,-31.62437 18.67671,-49.49902 Q 488.51948,86.024 521.74799,86.024 Z"
       id="path1152"
       style="fill:#ffffff;fill-opacity:1" />
    <path
       d="m 725.58766,93.128025 v 33.457665 q -8.36442,-5.72905 -16.84342,-8.47899 -8.36441,-2.74995 -17.41632,-2.74995 -17.18716,0 -26.81196,10.08313 -9.51023,9.96856 -9.51023,27.95778 0,17.98923 9.51023,28.07236 9.6248,9.96855 26.81196,9.96855 9.62481,0 18.21839,-2.86453 8.70816,-2.86452 16.04135,-8.47899 v 33.57225 q -9.62481,3.55201 -19.59336,5.27072 -9.85397,1.8333 -19.82253,1.8333 -34.71806,0 -54.31142,-17.76006 -19.59336,-17.87465 -19.59336,-49.6136 0,-31.73895 19.59336,-49.49902 19.59336,-17.87464 54.31142,-17.87464 10.08314,0 19.82253,1.833297 9.85397,1.718716 19.59336,5.270728 z"
       id="path1154"
       style="fill:#ffffff;fill-opacity:1" />
    <path
       d="m 889.09486,152.93934 v 11.68726 h -95.90434 q 1.48955,14.43722 10.42688,21.65582 8.93732,7.21861 24.97867,7.21861 12.94766,0 26.46822,-3.78117 13.63515,-3.89576 27.95778,-11.68727 v 31.62437 q -14.5518,5.49989 -29.10359,8.24984 -14.55179,2.86452 -29.10359,2.86452 -34.83264,0 -54.19684,-17.64548 -19.24962,-17.76006 -19.24962,-49.72818 0,-31.39521 18.90588,-49.38443 19.02045,-17.98923 52.24896,-17.98923 30.2494,0 48.35321,18.21839 18.21838,18.21839 18.21838,48.69695 z m -42.16583,-13.63515 q 0,-11.68727 -6.87486,-18.79129 -6.76028,-7.21861 -17.76006,-7.21861 -11.91643,0 -19.3642,6.76028 -7.44777,6.6457 -9.28107,19.24962 z"
       id="path1156"
       style="fill:#ffffff;fill-opacity:1" />
    <path
       d="m 1015.4778,124.06491 q -5.3854,-2.52078 -10.7707,-3.66659 -5.27069,-1.26039 -10.656,-1.26039 -15.81219,0 -24.40576,10.19771 -8.479,10.08313 -8.479,28.98901 v 59.12382 H 920.14632 V 89.117688 h 41.02002 V 110.2006 q 7.90609,-12.603913 18.1038,-18.332966 10.3123,-5.843634 24.63496,-5.843634 2.0624,0 4.4686,0.229162 2.4062,0.114581 6.9895,0.687486 z"
       id="path1158"
       style="fill:#ffffff;fill-opacity:1" />
    <path
       d="m 1139.569,93.128025 v 33.457665 q -8.3644,-5.72905 -16.8434,-8.47899 -8.3644,-2.74995 -17.4163,-2.74995 -17.1872,0 -26.812,10.08313 -9.5102,9.96856 -9.5102,27.95778 0,17.98923 9.5102,28.07236 9.6248,9.96855 26.812,9.96855 9.6248,0 18.2184,-2.86453 8.7082,-2.86452 16.0413,-8.47899 v 33.57225 q -9.6248,3.55201 -19.5933,5.27072 -9.854,1.8333 -19.8225,1.8333 -34.7181,0 -54.3115,-17.76006 -19.5933,-17.87465 -19.5933,-49.6136 0,-31.73895 19.5933,-49.49902 19.5934,-17.87464 54.3115,-17.87464 10.0831,0 19.8225,1.833297 9.854,1.718716 19.5933,5.270728 z"
       id="path1160"
       style="fill:#ffffff;fill-opacity:1" />
    <path
       d="m 1232.4943,159.69962 q -12.8331,0 -19.3642,4.35408 -6.4166,4.35408 -6.4166,12.83308 0,7.79151 5.1562,12.26017 5.2707,4.35408 14.5518,4.35408 11.5726,0 19.4787,-8.24984 7.9061,-8.36441 7.9061,-20.85375 v -4.69782 z m 62.6758,-15.46844 v 73.21729 h -41.3638 v -19.02045 q -8.2498,11.68726 -18.5621,17.07257 -10.3123,5.27073 -25.0932,5.27073 -19.9372,0 -32.4265,-11.57268 -12.3747,-11.68727 -12.3747,-30.2494 0,-22.57247 15.4684,-33.11393 15.583,-10.54146 48.8115,-10.54146 h 24.1766 v -3.20827 q 0,-9.73939 -7.6769,-14.20805 -7.6769,-4.58324 -23.9474,-4.58324 -13.1769,0 -24.5204,2.63537 -11.3435,2.63536 -21.0829,7.90609 V 92.55512 q 13.1768,-3.208269 26.4682,-4.812404 13.2914,-1.718716 26.5828,-1.718716 34.7181,0 50.072,13.749727 15.4684,13.635143 15.4684,44.457453 z"
       id="path1162"
       style="fill:#ffffff;fill-opacity:1" />
  </g>
</svg>
