<?xml version="1.0" encoding="UTF-8" standalone="no"?>
<svg
   id="Layer_2"
   data-name="Layer 2"
   viewBox="0 0 636.38 367.26"
   version="1.1"
   sodipodi:docname="logo_icon.svg"
   inkscape:version="1.2.2 (1:1.2.2+202305151914+b0a8486541)"
   xmlns:inkscape="http://www.inkscape.org/namespaces/inkscape"
   xmlns:sodipodi="http://sodipodi.sourceforge.net/DTD/sodipodi-0.dtd"
   xmlns:xlink="http://www.w3.org/1999/xlink"
   xmlns="http://www.w3.org/2000/svg"
   xmlns:svg="http://www.w3.org/2000/svg">
  <sodipodi:namedview
     id="namedview585"
     pagecolor="#ffffff"
     bordercolor="#000000"
     borderopacity="0.25"
     inkscape:showpageshadow="2"
     inkscape:pageopacity="0.0"
     inkscape:pagecheckerboard="0"
     inkscape:deskcolor="#d1d1d1"
     showgrid="false"
     inkscape:zoom="0.46978721"
     inkscape:cx="185.19023"
     inkscape:cy="271.39947"
     inkscape:window-width="1366"
     inkscape:window-height="654"
     inkscape:window-x="0"
     inkscape:window-y="27"
     inkscape:window-maximized="1"
     inkscape:current-layer="Layer_2" />
  <defs
     id="defs534">
    <style
       id="style430">.cls-1{fill:url(#White_Black);}.cls-2{fill:url(#White_Black-2);}.cls-3{fill:url(#linear-gradient);}.cls-4{fill:url(#White_Black-3);}.cls-5{fill:url(#linear-gradient-2);}.cls-6{fill:url(#linear-gradient-3);}.cls-7{fill:url(#linear-gradient-4);}.cls-8{fill:url(#linear-gradient-5);}.cls-9{fill:url(#linear-gradient-6);}.cls-10{fill:url(#linear-gradient-7);}.cls-11{fill:url(#linear-gradient-8);}.cls-12{fill:none;clip-rule:evenodd;}.cls-13{mask:url(#mask);}.cls-14{mask:url(#mask-2);}.cls-15{mask:url(#mask-3);}.cls-16{clip-path:url(#clip-path);}.cls-17{fill:url(#linear-gradient-9);}.cls-18{clip-path:url(#clip-path-2);}.cls-19{fill:url(#linear-gradient-10);}.cls-20{clip-path:url(#clip-path-3);}.cls-21{fill:url(#linear-gradient-11);}.cls-22{clip-path:url(#clip-path-4);}.cls-23{fill:url(#linear-gradient-12);}.cls-24{mask:url(#mask-4);}.cls-25{fill:#f1c30f;}.cls-25,.cls-27,.cls-29,.cls-31,.cls-33,.cls-35,.cls-37{fill-rule:evenodd;}.cls-26{mask:url(#mask-5);}.cls-27{fill:#fa5c98;}.cls-28{mask:url(#mask-6);}.cls-29{fill:#3e6bbd;}.cls-30{mask:url(#mask-7);}.cls-31{fill:#004790;}.cls-32{mask:url(#mask-8);}.cls-33{fill:#5e147d;}.cls-34{mask:url(#mask-9);}.cls-35{fill:#fde3a7;}.cls-36{mask:url(#mask-10);}.cls-37{fill:#ffbcd8;}.cls-38{mask:url(#mask-11);}</style>
    <linearGradient
       id="White_Black"
       x1="-2138.9"
       y1="1087.01"
       x2="-2289.64"
       y2="985.74"
       gradientTransform="translate(668.36 -348.47) rotate(-180)"
       gradientUnits="userSpaceOnUse">
      <stop
         offset="0"
         stop-color="#fff"
         id="stop432" />
      <stop
         offset="1"
         stop-color="#231f20"
         id="stop434" />
    </linearGradient>
    <linearGradient
       id="White_Black-2"
       x1="3896.96"
       y1="1429.35"
       x2="3411.13"
       y2="1102.96"
       gradientTransform="translate(-2225.15 -4460.11) rotate(90)"
       xlink:href="#White_Black" />
    <linearGradient
       id="linear-gradient"
       x1="-583.33"
       y1="1091.85"
       x2="-42.85"
       y2="814.34"
       gradientTransform="translate(733.54 -656.75)"
       gradientUnits="userSpaceOnUse">
      <stop
         offset="0"
         stop-color="#fff"
         id="stop438" />
      <stop
         offset="1"
         id="stop440" />
    </linearGradient>
    <linearGradient
       id="White_Black-3"
       x1="4217.82"
       y1="300.42"
       x2="3731.99"
       y2="-25.97"
       gradientTransform="translate(-7226.66 -1558.42)"
       xlink:href="#White_Black" />
    <linearGradient
       id="linear-gradient-2"
       x1="-193.22"
       y1="431.66"
       x2="-251.35"
       y2="1011.38"
       gradientTransform="translate(380.44 -623.54)"
       xlink:href="#linear-gradient" />
    <linearGradient
       id="linear-gradient-3"
       x1="25.42"
       y1="636.74"
       x2="-286.55"
       y2="973.82"
       gradientTransform="translate(487.79 -695.31)"
       xlink:href="#linear-gradient" />
    <linearGradient
       id="linear-gradient-4"
       x1="-268.86"
       y1="705.34"
       x2="-270.91"
       y2="1038.28"
       gradientTransform="translate(733.54 -664.56)"
       xlink:href="#linear-gradient" />
    <linearGradient
       id="linear-gradient-5"
       x1="-401.22"
       y1="1001.45"
       x2="-164.78"
       y2="819.71"
       gradientTransform="translate(770.61 -849.38)"
       xlink:href="#linear-gradient" />
    <linearGradient
       id="linear-gradient-6"
       x1="-336.52"
       y1="937.94"
       x2="-135.96"
       y2="997.64"
       gradientTransform="translate(487.79 -695.27)"
       xlink:href="#linear-gradient" />
    <linearGradient
       id="linear-gradient-7"
       x1="-15.85"
       y1="855.26"
       x2="-387.07"
       y2="1017.26"
       gradientTransform="translate(463.68 -913.34)"
       xlink:href="#linear-gradient" />
    <linearGradient
       id="linear-gradient-8"
       x1="-154.65"
       y1="940.74"
       x2="-403.1"
       y2="1011.58"
       gradientTransform="translate(797.06 -966.4)"
       xlink:href="#linear-gradient" />
    <mask
       id="mask"
       x="2855.39"
       y="-1397.08"
       width="168.2"
       height="109.01"
       maskUnits="userSpaceOnUse">
      <g
         transform="translate(0 4.03)"
         id="g453">
        <rect
           class="cls-1"
           x="2860.36"
           y="-1391.65"
           width="158.25"
           height="90.1"
           transform="translate(189.55 353.92) rotate(-7.12)"
           id="rect451" />
      </g>
    </mask>
    <mask
       id="mask-2"
       x="-3544.08"
       y="-1256.2"
       width="351.34"
       height="542.08"
       maskUnits="userSpaceOnUse">
      <g
         transform="translate(0 4.03)"
         id="g458">
        <rect
           class="cls-2"
           x="-3513.6"
           y="-1244.2"
           width="290.37"
           height="510.03"
           transform="translate(96.62 -425.08) rotate(-7.12)"
           id="rect456" />
      </g>
    </mask>
    <mask
       id="mask-3"
       x="-3705.89"
       y="-1715.73"
       width="542.08"
       height="351.34"
       maskUnits="userSpaceOnUse">
      <g
         transform="translate(0 4.03)"
         id="g463">
        <rect
           class="cls-4"
           x="-3689.86"
           y="-1689.28"
           width="510.03"
           height="290.37"
           transform="translate(164.88 -437.59) rotate(-7.12)"
           id="rect461" />
      </g>
    </mask>
    <clipPath
       id="clip-path"
       transform="translate(0 4.03)">
      <path
         class="cls-12"
         d="M454.76,90.08a91.54,91.54,0,0,1,0,183.07c-61.34,0-65.95-11.81-117.93,46.57a180.9,180.9,0,0,0,117.93,43.51c100.3,0,181.62-81.32,181.62-181.62A181.57,181.57,0,0,0,542.8,22.73C373.56-4,353.46,143.3,372.19,147.79c9.74-32.53,29.82-57.71,82.57-57.71"
         id="path466" />
    </clipPath>
    <linearGradient
       id="linear-gradient-9"
       x1="405.82"
       y1="8.41"
       x2="573.35"
       y2="371.77"
       gradientUnits="userSpaceOnUse">
      <stop
         offset="0"
         stop-color="#0070ad"
         id="stop469" />
      <stop
         offset="1"
         stop-color="#fa5ced"
         id="stop471" />
    </linearGradient>
    <clipPath
       id="clip-path-2"
       transform="translate(0 4.03)">
      <path
         class="cls-12"
         d="M544.69,164.5a91.6,91.6,0,0,1-89.93,108.65c-59.94,0-65.72-11.26-114.47,42.71l11.5,15.36h0c.21,0,206.25,12.06,234.34-112.22,7.21-31.92-10.78-48.08-41.45-54.51"
         id="path474" />
    </clipPath>
    <linearGradient
       id="linear-gradient-10"
       x1="361.26"
       y1="28.96"
       x2="528.78"
       y2="392.32"
       xlink:href="#linear-gradient-9" />
    <clipPath
       id="clip-path-3"
       transform="translate(0 4.03)">
      <path
         class="cls-12"
         d="M279.7,133.11c-18,65-1.94,140-98.09,140-32.53,0-63-17.31-79.21-42.88,16.37,47.79,72.45,110.89,231.18,50.84a181.75,181.75,0,0,0,27.56-71.9c3.15-20.6,5.31-42.28,11.05-61.42,0,0,31.2-144.66,170.61-125.06A181.74,181.74,0,0,0,279.7,133.11"
         id="path478" />
    </clipPath>
    <linearGradient
       id="linear-gradient-11"
       x1="477.57"
       y1="-40.66"
       x2="238.51"
       y2="291.41"
       gradientUnits="userSpaceOnUse">
      <stop
         offset="0"
         stop-color="#fa5c98"
         id="stop481" />
      <stop
         offset="1"
         stop-color="#8e44ad"
         id="stop483" />
    </linearGradient>
    <clipPath
       id="clip-path-4"
       transform="translate(0 4.03)">
      <path
         class="cls-12"
         d="M333.58,281.11C251,304.74,115.23,308.84,92.11,200.88a91.62,91.62,0,0,1,89.5-110.8c66.28,0,45.13,35.19,117.93-46.57A180.88,180.88,0,0,0,181.61,0C81.32,0,0,81.32,0,181.61S81.32,363.23,181.61,363.23a182,182,0,0,0,152-82.12"
         id="path486" />
    </clipPath>
    <linearGradient
       id="linear-gradient-12"
       x1="211.81"
       y1="3.38"
       x2="121.72"
       y2="368.07"
       gradientUnits="userSpaceOnUse">
      <stop
         offset="0"
         stop-color="#f1c40f"
         id="stop489" />
      <stop
         offset="1"
         stop-color="#da3c78"
         id="stop491" />
    </linearGradient>
    <mask
       id="mask-4"
       x="0"
       y="4.03"
       width="299.54"
       height="363.23"
       maskUnits="userSpaceOnUse">
      <g
         transform="translate(0 4.03)"
         id="g496">
        <rect
           class="cls-5"
           width="299.54"
           height="363.23"
           id="rect494" />
      </g>
    </mask>
    <mask
       id="mask-5"
       x="102.4"
       y="4.03"
       width="440.4"
       height="294.77"
       maskUnits="userSpaceOnUse">
      <g
         transform="translate(0 4.03)"
         id="g501">
        <rect
           class="cls-6"
           x="102.4"
           width="440.4"
           height="294.77"
           id="rect499" />
      </g>
    </mask>
    <mask
       id="mask-6"
       x="336.83"
       y="53.7"
       width="253.92"
       height="274.42"
       maskUnits="userSpaceOnUse">
      <g
         transform="translate(0 4.03)"
         id="g506">
        <rect
           class="cls-7"
           x="336.83"
           y="49.68"
           width="253.92"
           height="274.42"
           id="rect504" />
      </g>
    </mask>
    <mask
       id="mask-7"
       x="372.19"
       y="24.93"
       width="170.61"
       height="126.89"
       maskUnits="userSpaceOnUse">
      <g
         transform="translate(0 4.03)"
         id="g511">
        <rect
           class="cls-8"
           x="372.19"
           y="20.9"
           width="170.61"
           height="126.89"
           id="rect509" />
      </g>
    </mask>
    <mask
       id="mask-8"
       x="102.4"
       y="234.29"
       width="231.18"
       height="64.54"
       maskUnits="userSpaceOnUse">
      <g
         transform="translate(0 4.03)"
         id="g516">
        <rect
           class="cls-9"
           x="102.4"
           y="230.27"
           width="231.18"
           height="64.54"
           id="rect514" />
      </g>
    </mask>
    <mask
       id="mask-9"
       x="79.4"
       y="26.58"
       width="220.15"
       height="64.23"
       maskUnits="userSpaceOnUse">
      <g
         transform="translate(0 4.03)"
         id="g521">
        <rect
           class="cls-10"
           x="79.4"
           y="22.55"
           width="220.15"
           height="64.23"
           id="rect519" />
      </g>
    </mask>
    <mask
       id="mask-10"
       x="397.42"
       y="14.79"
       width="145.38"
       height="25.4"
       maskUnits="userSpaceOnUse">
      <g
         transform="translate(0 4.03)"
         id="g526">
        <rect
           class="cls-11"
           x="397.42"
           y="10.77"
           width="145.38"
           height="25.4"
           id="rect524" />
      </g>
    </mask>
    <mask
       id="mask-11"
       x="336.83"
       y="223.04"
       width="249.31"
       height="112.54"
       maskUnits="userSpaceOnUse">
      <g
         transform="translate(0 4.03)"
         id="g531">
        <rect
           class="cls-3"
           x="336.83"
           y="219.01"
           width="249.31"
           height="112.54"
           id="rect529" />
      </g>
    </mask>
    <linearGradient
       x1="0"
       y1="0"
       x2="1"
       y2="0"
       gradientUnits="userSpaceOnUse"
       gradientTransform="matrix(-99.269165,91.4664,91.4664,99.269165,369.5632,269.95401)"
       spreadMethod="pad"
       id="linearGradient742">
      <stop
         style="stop-opacity:1;stop-color:#fda356"
         offset="0"
         id="stop736" />
      <stop
         style="stop-opacity:1;stop-color:#fda356"
         offset="0.10746959"
         id="stop738" />
      <stop
         style="stop-opacity:1;stop-color:#fe0061"
         offset="1"
         id="stop740" />
    </linearGradient>
    <clipPath
       clipPathUnits="userSpaceOnUse"
       id="clipPath752">
      <path
         d="M 0,500 H 500 V 0 H 0 Z"
         id="path750" />
    </clipPath>
    <clipPath
       clipPathUnits="userSpaceOnUse"
       id="clipPath760">
      <path
         d="M 256.835,379.969 H 413.258 V 223.546 H 256.835 Z"
         id="path758" />
    </clipPath>
    <clipPath
       clipPathUnits="userSpaceOnUse"
       id="clipPath776">
      <path
         d="m 285.726,351.209 h 98.773 v -98.772 h -98.773 z"
         id="path774" />
    </clipPath>
    <linearGradient
       x1="0"
       y1="0"
       x2="1"
       y2="0"
       gradientUnits="userSpaceOnUse"
       gradientTransform="matrix(123.81855,-123.81855,-123.81855,-123.81855,280.70679,356.09738)"
       spreadMethod="pad"
       id="linearGradient804">
      <stop
         style="stop-opacity:1;stop-color:#fee43b"
         offset="0"
         id="stop798" />
      <stop
         style="stop-opacity:1;stop-color:#fee43b"
         offset="0.00052083"
         id="stop800" />
      <stop
         style="stop-opacity:1;stop-color:#fe2526"
         offset="1"
         id="stop802" />
    </linearGradient>
    <clipPath
       clipPathUnits="userSpaceOnUse"
       id="clipPath814">
      <path
         d="M 0,500 H 500 V 0 H 0 Z"
         id="path812" />
    </clipPath>
    <clipPath
       clipPathUnits="userSpaceOnUse"
       id="clipPath822">
      <path
         d="M 256.835,377.867 H 387.212 V 245.841 H 256.835 Z"
         id="path820" />
    </clipPath>
    <clipPath
       clipPathUnits="userSpaceOnUse"
       id="clipPath838">
      <path
         d="M 256.835,379.969 H 413.258 V 223.546 H 256.835 Z"
         id="path836" />
    </clipPath>
    <linearGradient
       x1="0"
       y1="0"
       x2="1"
       y2="0"
       gradientUnits="userSpaceOnUse"
       gradientTransform="matrix(-111.61071,111.61071,111.61071,111.61071,210.64418,256.29636)"
       spreadMethod="pad"
       id="linearGradient866">
      <stop
         style="stop-opacity:1;stop-color:#fda356"
         offset="0"
         id="stop860" />
      <stop
         style="stop-opacity:1;stop-color:#fda356"
         offset="0.10746959"
         id="stop862" />
      <stop
         style="stop-opacity:1;stop-color:#fe0061"
         offset="1"
         id="stop864" />
    </linearGradient>
    <clipPath
       clipPathUnits="userSpaceOnUse"
       id="clipPath876">
      <path
         d="M 0,500 H 500 V 0 H 0 Z"
         id="path874" />
    </clipPath>
    <clipPath
       clipPathUnits="userSpaceOnUse"
       id="clipPath884">
      <path
         d="m 116.492,350.513 h 97.317 v -97.317 h -97.317 z"
         id="path882" />
    </clipPath>
    <clipPath
       clipPathUnits="userSpaceOnUse"
       id="clipPath900">
      <path
         d="M 86.7413,379.966 H 243.16 V 223.548 H 86.7413 Z"
         id="path898" />
    </clipPath>
    <linearGradient
       x1="0"
       y1="0"
       x2="1"
       y2="0"
       gradientUnits="userSpaceOnUse"
       gradientTransform="matrix(153.58392,0,0,-153.58392,85.728363,301.75739)"
       spreadMethod="pad"
       id="linearGradient928">
      <stop
         style="stop-opacity:1;stop-color:#fee43b"
         offset="0"
         id="stop922" />
      <stop
         style="stop-opacity:1;stop-color:#fee43b"
         offset="0.00052083"
         id="stop924" />
      <stop
         style="stop-opacity:1;stop-color:#fe2526"
         offset="1"
         id="stop926" />
    </linearGradient>
    <clipPath
       clipPathUnits="userSpaceOnUse"
       id="clipPath938">
      <path
         d="M 0,500 H 500 V 0 H 0 Z"
         id="path936" />
    </clipPath>
    <clipPath
       clipPathUnits="userSpaceOnUse"
       id="clipPath950">
      <path
         d="m 202.541,280.983 h 34.144 v -15.19 h -34.144 z"
         id="path948" />
    </clipPath>
    <clipPath
       clipPathUnits="userSpaceOnUse"
       id="clipPath966">
      <path
         d="M 86.8732,377.899 H 217.25 V 245.872 H 86.8732 Z"
         id="path964" />
    </clipPath>
    <clipPath
       clipPathUnits="userSpaceOnUse"
       id="clipPath982">
      <path
         d="M 86.8732,380 H 243.296 V 223.577 H 86.8732 Z"
         id="path980" />
    </clipPath>
    <linearGradient
       x1="0"
       y1="0"
       x2="1"
       y2="0"
       gradientUnits="userSpaceOnUse"
       gradientTransform="matrix(72.337944,-72.337944,-72.337944,-72.337944,177.67213,331.44843)"
       spreadMethod="pad"
       id="linearGradient1010">
      <stop
         style="stop-opacity:1;stop-color:#fee43b"
         offset="0"
         id="stop1004" />
      <stop
         style="stop-opacity:1;stop-color:#fee43b"
         offset="0.00052083"
         id="stop1006" />
      <stop
         style="stop-opacity:1;stop-color:#fe2526"
         offset="1"
         id="stop1008" />
    </linearGradient>
    <clipPath
       clipPathUnits="userSpaceOnUse"
       id="clipPath1020">
      <path
         d="M 0,500 H 500 V 0 H 0 Z"
         id="path1018" />
    </clipPath>
    <clipPath
       clipPathUnits="userSpaceOnUse"
       id="clipPath1028">
      <path
         d="m 165.183,311.534 h 78.211 v -41.513 h -78.211 z"
         id="path1026" />
    </clipPath>
    <clipPath
       clipPathUnits="userSpaceOnUse"
       id="clipPath1222">
      <path
         d="M 0,500 H 500 V 0 H 0 Z"
         id="path1220" />
    </clipPath>
  </defs>
  <g
     id="g2468"
     transform="translate(392.82025,66.526494)">
    <g
       id="g1216"
       transform="matrix(1.8317989,0,0,-1.9481768,-532.45144,675.22648)">
      <g
         id="g1218"
         clip-path="url(#clipPath1222)">
        <g
           id="g1224"
           transform="translate(247.7051,285.4076)">
          <path
             d="m 0,0 c 0,46.39 36.543,80.088 86.434,80.088 49.891,0 86.433,-33.698 86.433,-80.088 0,-46.391 -36.542,-80.089 -86.433,-80.089 C 36.543,-80.089 0,-46.391 0,0"
             style="fill:#ff6100;fill-opacity:1;fill-rule:nonzero;stroke:none"
             id="path1226" />
        </g>
        <g
           id="g1228"
           transform="translate(346.0401,223.765)">
          <path
             d="m 0,0 c -49.892,0 -86.434,33.698 -86.434,80.089 0,12.082 2.499,23.293 7.047,33.282 -11.987,-13.664 -18.948,-31.487 -18.948,-51.728 0,-46.391 36.543,-80.089 86.434,-80.089 36.896,0 66.471,18.442 79.385,46.805 C 51.999,10.709 28.121,0 0,0"
             style="fill:#f84b00;fill-opacity:1;fill-rule:nonzero;stroke:none"
             id="path1230" />
        </g>
        <g
           id="g1232"
           transform="translate(369.7442,296.3314)">
          <path
             d="m 0,0 c 0,-19.665 -35.605,-62.004 -35.605,-62.004 0,0 -35.606,42.339 -35.606,62.004 0,19.664 15.941,35.605 35.606,35.605 C -15.941,35.605 0,19.664 0,0"
             style="fill:#ffffff;fill-opacity:1;fill-rule:nonzero;stroke:none"
             id="path1234" />
        </g>
        <g
           id="g1236"
           transform="translate(354.7862,298.351)">
          <path
             d="m 0,0 c 0,-11.403 -9.244,-20.647 -20.647,-20.647 -11.404,0 -20.648,9.244 -20.648,20.647 0,11.403 9.244,20.647 20.648,20.647 C -9.244,20.647 0,11.403 0,0"
             style="fill:#00c000;fill-opacity:1;fill-rule:nonzero;stroke:none"
             id="path1238" />
        </g>
        <g
           id="g1240"
           transform="translate(186.8682,289.5638)">
          <path
             d="m 0,0 h 44.859 v -64.771 c -18.6,-12.69 -44.204,-19.474 -66.741,-19.474 -49.454,0 -85.558,33.043 -85.558,80.089 0,47.045 36.104,80.088 86.653,80.088 30.195,0 54.485,-10.503 70.022,-29.542 L 16.192,17.288 c -9.628,11.16 -20.788,16.848 -34.353,16.848 -22.758,0 -37.201,-14.66 -37.201,-38.292 0,-22.978 14.443,-38.293 36.544,-38.293 6.344,0 12.471,1.093 18.818,3.719 z"
             style="fill:#ff6100;fill-opacity:1;fill-rule:nonzero;stroke:none"
             id="path1242" />
        </g>
        <g
           id="g1244"
           transform="translate(194.4248,217.7005)">
          <path
             d="m 0,0 c -57.497,0 -104.108,46.611 -104.108,104.108 0,1.628 0.048,3.246 0.123,4.856 -7.069,-11.781 -11.012,-25.751 -11.012,-41.257 0,-47.046 36.104,-80.089 85.559,-80.089 22.254,0 47.485,6.627 66.025,19.011 C 25.202,2.354 12.878,0 0,0"
             style="fill:#f84b00;fill-opacity:1;fill-rule:nonzero;stroke:none"
             id="path1246" />
        </g>
      </g>
    </g>
  </g>
</svg>
