<?xml version="1.0" encoding="UTF-8" standalone="no"?>
<!-- Created with Inkscape (http://www.inkscape.org/) -->

<svg
   version="1.1"
   id="svg1192"
   width="666.66669"
   height="666.66669"
   viewBox="0 0 666.66669 666.66669"
   sodipodi:docname="logo-total.svg"
   inkscape:version="1.2.2 (1:1.2.2+202305151914+b0a8486541)"
   xmlns:inkscape="http://www.inkscape.org/namespaces/inkscape"
   xmlns:sodipodi="http://sodipodi.sourceforge.net/DTD/sodipodi-0.dtd"
   xmlns="http://www.w3.org/2000/svg"
   xmlns:svg="http://www.w3.org/2000/svg">
  <defs
     id="defs1196">
    <clipPath
       clipPathUnits="userSpaceOnUse"
       id="clipPath1222">
      <path
         d="M 0,500 H 500 V 0 H 0 Z"
         id="path1220" />
    </clipPath>
  </defs>
  <sodipodi:namedview
     id="namedview1194"
     pagecolor="#ffffff"
     bordercolor="#000000"
     borderopacity="0.25"
     inkscape:showpageshadow="2"
     inkscape:pageopacity="0.0"
     inkscape:pagecheckerboard="0"
     inkscape:deskcolor="#d1d1d1"
     showgrid="false"
     inkscape:zoom="0.51760215"
     inkscape:cx="191.26659"
     inkscape:cy="377.70322"
     inkscape:window-width="1366"
     inkscape:window-height="654"
     inkscape:window-x="0"
     inkscape:window-y="27"
     inkscape:window-maximized="1"
     inkscape:current-layer="g621">
    <inkscape:page
       x="0"
       y="0"
       id="page1198"
       width="666.66669"
       height="666.66669"
       inkscape:export-filename="logo-total.png"
       inkscape:export-xdpi="96"
       inkscape:export-ydpi="96" />
  </sodipodi:namedview>
  <g
     id="g1200"
     inkscape:groupmode="layer"
     inkscape:label="Page 1"
     transform="matrix(1.3333333,0,0,-1.3333333,0,666.66667)">
    <g
       id="g6541"
       transform="translate(2.0949945,43.494355)">
      <g
         id="g1348"
         transform="translate(1.2565834,69.089548)">
        <g
           id="g1212"
           transform="matrix(1.3738492,0,0,1.4611326,18.322107,56.16142)">
          <path
             d="M 0,0 H 333.038"
             style="fill:none;stroke:#ff6100;stroke-width:2.766;stroke-linecap:butt;stroke-linejoin:miter;stroke-miterlimit:10;stroke-dasharray:none;stroke-opacity:1"
             id="path1214" />
        </g>
        <g
           aria-label="Sistema de parqueo inteligente. "
           transform="scale(0.91726936,-1.0901923)"
           id="text6507"
           style="font-weight:bold;font-size:25.9588px;-inkscape-font-specification:'sans-serif, Bold';fill:#ff6100;stroke-width:0.148344">
          <path
             d="m 47.858678,-41.671359 v 4.005362 q -1.559049,-0.697136 -3.042047,-1.052042 -1.482998,-0.354905 -2.801218,-0.354905 -1.749177,0 -2.58574,0.481657 -0.836563,0.481658 -0.836563,1.495673 0,0.760512 0.557709,1.191469 0.570383,0.418281 2.053381,0.722486 l 2.078732,0.418281 q 3.156124,0.63376 4.487019,1.92663 1.330896,1.29287 1.330896,3.675806 0,3.130774 -1.863254,4.664472 -1.850578,1.521024 -5.665812,1.521024 -1.799878,0 -3.612431,-0.342231 -1.812553,-0.34223 -3.625105,-1.014015 v -4.119439 q 1.812552,0.963315 3.498353,1.457648 1.698477,0.481657 3.270201,0.481657 1.597074,0 2.446312,-0.532358 0.849238,-0.532358 0.849238,-1.521023 0,-0.887264 -0.583059,-1.368922 -0.570383,-0.481657 -2.29421,-0.861913 l -1.888604,-0.418281 q -2.839244,-0.60841 -4.157464,-1.939305 -1.305545,-1.330896 -1.305545,-3.58708 0,-2.826569 1.825228,-4.347592 1.825228,-1.521024 5.247531,-1.521024 1.559049,0 3.206824,0.240829 1.647776,0.228154 3.409628,0.697136 z"
             id="path6559" />
          <path
             d="m 53.18226,-37.539246 h 4.53772 v 14.196219 h -4.53772 z m 0,-5.526385 h 4.53772 v 3.701157 h -4.53772 z"
             id="path6561" />
          <path
             d="m 73.171043,-37.095614 v 3.447653 q -1.457647,-0.608409 -2.813893,-0.912614 -1.356246,-0.304204 -2.560389,-0.304204 -1.29287,0 -1.92663,0.329555 -0.621085,0.31688 -0.621085,0.988665 0,0.545033 0.468983,0.836563 0.481657,0.291529 1.711151,0.430956 l 0.798537,0.114077 q 3.485679,0.443632 4.689822,1.457648 1.204144,1.014015 1.204144,3.181474 0,2.268859 -1.673126,3.409627 -1.673126,1.140768 -4.994027,1.140768 -1.406946,0 -2.915295,-0.228154 -1.495673,-0.215478 -3.080072,-0.65911 v -3.447653 q 1.356246,0.65911 2.775868,0.988665 1.432297,0.329555 2.902619,0.329555 1.330896,0 2.002681,-0.367581 0.671786,-0.36758 0.671786,-1.090066 0,-0.60841 -0.468983,-0.899939 -0.456307,-0.304205 -1.837903,-0.468982 l -0.798537,-0.101402 q -3.029372,-0.380256 -4.246191,-1.406947 -1.216818,-1.02669 -1.216818,-3.118098 0,-2.256184 1.546374,-3.346251 1.546373,-1.090067 4.740522,-1.090067 1.254845,0 2.636441,0.190128 1.381596,0.190128 3.004021,0.595734 z"
             id="path6563" />
          <path
             d="m 82.487312,-41.569958 v 4.030712 h 4.677147 v 3.24485 h -4.677147 v 6.020718 q 0,0.988665 0.392931,1.343571 0.392931,0.34223 1.559049,0.34223 h 2.332236 v 3.24485 h -3.891285 q -2.687141,0 -3.815234,-1.115417 -1.115417,-1.128093 -1.115417,-3.815234 v -6.020718 h -2.256185 v -3.24485 h 2.256185 v -4.030712 z"
             id="path6565" />
          <path
             d="m 104.11119,-30.479162 v 1.29287 H 93.502056 q 0.164778,1.597075 1.153443,2.395612 0.988665,0.798537 2.763192,0.798537 1.432297,0 2.927969,-0.418281 1.50835,-0.430957 3.09275,-1.29287 v 3.498354 q -1.60975,0.608409 -3.2195,0.912614 -1.60975,0.31688 -3.2195,0.31688 -3.853259,0 -5.995367,-1.95198 -2.129433,-1.964656 -2.129433,-5.501035 0,-3.473004 2.091407,-5.463009 2.104083,-1.990006 5.779889,-1.990006 3.346254,0 5.348934,2.015356 2.01535,2.015356 2.01535,5.386958 z m -4.664467,-1.508348 q 0,-1.29287 -0.760512,-2.078732 -0.747837,-0.798537 -1.964655,-0.798537 -1.318221,0 -2.142108,0.747836 -0.823888,0.735161 -1.026691,2.129433 z"
             id="path6567" />
          <path
             d="m 120.70303,-35.181659 q 0.86191,-1.318221 2.04071,-2.002681 1.19146,-0.697136 2.61109,-0.697136 2.44631,0 3.7265,1.508348 1.2802,1.508349 1.2802,4.385618 v 8.644483 h -4.56307 v -7.402314 q 0.0127,-0.164778 0.0127,-0.34223 0.0127,-0.177453 0.0127,-0.507008 0,-1.508348 -0.44363,-2.180134 -0.44364,-0.68446 -1.4323,-0.68446 -1.29287,0 -2.00268,1.064716 -0.69714,1.064717 -0.72249,3.080073 v 6.971357 h -4.56307 v -7.402314 q 0,-2.357586 -0.4056,-3.029372 -0.40561,-0.68446 -1.44498,-0.68446 -1.30554,0 -2.01535,1.077391 -0.70981,1.064717 -0.70981,3.054722 v 6.984033 h -4.56307 v -14.196219 h 4.56307 v 2.078732 q 0.83656,-1.204143 1.91395,-1.812552 1.09007,-0.60841 2.39561,-0.60841 1.47033,0 2.59842,0.709811 1.12809,0.709811 1.71115,1.990006 z"
             id="path6569" />
          <path
             d="m 140.95798,-29.731325 q -1.41962,0 -2.1421,0.481657 -0.70982,0.481657 -0.70982,1.419622 0,0.861913 0.57039,1.356246 0.58306,0.481657 1.60975,0.481657 1.28019,0 2.15478,-0.912614 0.87459,-0.925289 0.87459,-2.306885 v -0.519683 z m 6.93333,-1.711152 v 8.09945 h -4.57574 v -2.104082 q -0.91261,1.292869 -2.05338,1.888604 -1.14077,0.583059 -2.77587,0.583059 -2.20548,0 -3.58708,-1.280195 -1.36892,-1.29287 -1.36892,-3.346252 0,-2.497013 1.71115,-3.663131 1.72383,-1.166118 5.39963,-1.166118 h 2.67447 v -0.354905 q 0,-1.077392 -0.84924,-1.571725 -0.84924,-0.507007 -2.64911,-0.507007 -1.45765,0 -2.7125,0.291529 -1.25484,0.29153 -2.33223,0.874589 v -3.460329 q 1.45765,-0.354905 2.92797,-0.532358 1.47032,-0.190128 2.94064,-0.190128 3.84059,0 5.53906,1.521024 1.71115,1.508348 1.71115,4.917975 z"
             id="path6571" />
          <path
             d="m 170.80807,-35.460514 v -7.605117 h 4.56307 v 19.722604 h -4.56307 v -2.053382 q -0.93797,1.254845 -2.06606,1.837904 -1.12809,0.583059 -2.61109,0.583059 -2.62376,0 -4.30956,-2.078732 -1.68581,-2.091408 -1.68581,-5.374283 0,-3.282876 1.68581,-5.361608 1.6858,-2.091407 4.30956,-2.091407 1.47032,0 2.59842,0.595734 1.14076,0.583059 2.07873,1.825228 z m -2.99135,9.189517 q 1.45765,0 2.21816,-1.064717 0.77319,-1.064716 0.77319,-3.092747 0,-2.028031 -0.77319,-3.092748 -0.76051,-1.064716 -2.21816,-1.064716 -1.44497,0 -2.21816,1.064716 -0.76051,1.064717 -0.76051,3.092748 0,2.028031 0.76051,3.092747 0.77319,1.064717 2.21816,1.064717 z"
             id="path6573" />
          <path
             d="m 193.90227,-30.479162 v 1.29287 h -10.60914 q 0.16478,1.597075 1.15345,2.395612 0.98866,0.798537 2.76319,0.798537 1.4323,0 2.92797,-0.418281 1.50835,-0.430957 3.09275,-1.29287 v 3.498354 q -1.60975,0.608409 -3.2195,0.912614 -1.60975,0.31688 -3.2195,0.31688 -3.85326,0 -5.99537,-1.95198 -2.12943,-1.964656 -2.12943,-5.501035 0,-3.473004 2.0914,-5.463009 2.10409,-1.990006 5.77989,-1.990006 3.34625,0 5.34894,2.015356 2.01535,2.015356 2.01535,5.386958 z m -4.66447,-1.508348 q 0,-1.29287 -0.76051,-2.078732 -0.74784,-0.798537 -1.96466,-0.798537 -1.31822,0 -2.14211,0.747836 -0.82388,0.735161 -1.02669,2.129433 z"
             id="path6575" />
          <path
             d="m 210.91239,-25.396409 v 7.453015 h -4.53772 v -19.595852 h 4.53772 v 2.078732 q 0.93796,-1.242169 2.07873,-1.825228 1.14077,-0.595734 2.62376,-0.595734 2.62377,0 4.30957,2.091407 1.6858,2.078732 1.6858,5.361608 0,3.282875 -1.6858,5.374283 -1.6858,2.078732 -4.30957,2.078732 -1.48299,0 -2.62376,-0.583059 -1.14077,-0.595735 -2.07873,-1.837904 z m 3.01669,-9.189516 q -1.45764,0 -2.24351,1.077391 -0.77318,1.064717 -0.77318,3.080073 0,2.015356 0.77318,3.092747 0.78587,1.064717 2.24351,1.064717 1.45765,0 2.21816,-1.064717 0.77319,-1.064716 0.77319,-3.092747 0,-2.028031 -0.77319,-3.092748 -0.76051,-1.064716 -2.21816,-1.064716 z"
             id="path6577" />
          <path
             d="m 231.31945,-29.731325 q -1.41962,0 -2.14211,0.481657 -0.70981,0.481657 -0.70981,1.419622 0,0.861913 0.57038,1.356246 0.58306,0.481657 1.60975,0.481657 1.2802,0 2.15479,-0.912614 0.87458,-0.925289 0.87458,-2.306885 v -0.519683 z m 6.93333,-1.711152 v 8.09945 h -4.57575 v -2.104082 q -0.91261,1.292869 -2.05338,1.888604 -1.14076,0.583059 -2.77586,0.583059 -2.20549,0 -3.58708,-1.280195 -1.36893,-1.29287 -1.36893,-3.346252 0,-2.497013 1.71116,-3.663131 1.72382,-1.166118 5.39963,-1.166118 h 2.67446 v -0.354905 q 0,-1.077392 -0.84923,-1.571725 -0.84924,-0.507007 -2.64912,-0.507007 -1.45765,0 -2.71249,0.291529 -1.25484,0.29153 -2.33224,0.874589 v -3.460329 q 1.45765,-0.354905 2.92797,-0.532358 1.47033,-0.190128 2.94065,-0.190128 3.84058,0 5.53906,1.521024 1.71115,1.508348 1.71115,4.917975 z"
             id="path6579" />
          <path
             d="m 253.01938,-33.673311 q -0.59573,-0.278854 -1.19147,-0.405606 -0.58305,-0.139427 -1.17879,-0.139427 -1.74918,0 -2.69981,1.128092 -0.93797,1.115417 -0.93797,3.206824 v 6.540401 h -4.53772 v -14.196219 h 4.53772 v 2.332236 q 0.87459,-1.394271 2.00268,-2.028031 1.14077,-0.646435 2.72517,-0.646435 0.22815,0 0.49433,0.02535 0.26618,0.01268 0.77319,0.07605 z"
             id="path6581" />
          <path
             d="m 261.94273,-34.585925 q -1.44497,0 -2.21816,1.064716 -0.76051,1.064717 -0.76051,3.092748 0,2.028031 0.76051,3.092747 0.77319,1.064717 2.21816,1.064717 1.45765,0 2.21816,-1.064717 0.77319,-1.064716 0.77319,-3.092747 0,-2.028031 -0.77319,-3.092748 -0.76051,-1.064716 -2.21816,-1.064716 z m 2.99135,9.189516 q -0.93797,1.254845 -2.06606,1.837904 -1.12809,0.583059 -2.61109,0.583059 -2.62377,0 -4.30957,-2.078732 -1.6858,-2.091408 -1.6858,-5.374283 0,-3.282876 1.6858,-5.348932 1.6858,-2.078732 4.30957,-2.078732 1.483,0 2.61109,0.583059 1.12809,0.583059 2.06606,1.837903 v -2.104083 h 4.56307 v 19.595852 h -4.56307 z"
             id="path6583" />
          <path
             d="m 273.70531,-28.869412 v -8.669834 h 4.56307 v 1.419622 q 0,1.153443 -0.0127,2.90262 -0.0127,1.736502 -0.0127,2.319561 0,1.711151 0.0887,2.471663 0.0887,0.747836 0.30421,1.090066 0.27885,0.443632 0.72248,0.684461 0.45631,0.240829 1.03937,0.240829 1.41962,0 2.23084,-1.090067 0.81121,-1.090067 0.81121,-3.029372 v -7.009383 h 4.53772 v 14.196219 h -4.53772 v -2.053382 q -1.02669,1.242169 -2.18014,1.837904 -1.14076,0.583059 -2.52236,0.583059 -2.45899,0 -3.75186,-1.508349 -1.28019,-1.508348 -1.28019,-4.385617 z"
             id="path6585" />
          <path
             d="m 306.50872,-30.479162 v 1.29287 h -10.60914 q 0.16478,1.597075 1.15344,2.395612 0.98867,0.798537 2.76319,0.798537 1.4323,0 2.92797,-0.418281 1.50835,-0.430957 3.09275,-1.29287 v 3.498354 q -1.60975,0.608409 -3.2195,0.912614 -1.60975,0.31688 -3.2195,0.31688 -3.85326,0 -5.99537,-1.95198 -2.12943,-1.964656 -2.12943,-5.501035 0,-3.473004 2.09141,-5.463009 2.10408,-1.990006 5.77989,-1.990006 3.34625,0 5.34893,2.015356 2.01536,2.015356 2.01536,5.386958 z m -4.66448,-1.508348 q 0,-1.29287 -0.76051,-2.078732 -0.74783,-0.798537 -1.96465,-0.798537 -1.31822,0 -2.14211,0.747836 -0.82389,0.735161 -1.02669,2.129433 z"
             id="path6587" />
          <path
             d="m 316.69956,-34.636626 q -1.50835,0 -2.30688,1.090067 -0.78587,1.077391 -0.78587,3.118098 0,2.040706 0.78587,3.130773 0.79853,1.077392 2.30688,1.077392 1.483,0 2.26886,-1.077392 0.78586,-1.090067 0.78586,-3.130773 0,-2.040707 -0.78586,-3.118098 -0.78586,-1.090067 -2.26886,-1.090067 z m 0,-3.24485 q 3.66313,0 5.71652,1.977331 2.06605,1.97733 2.06605,5.475684 0,3.498354 -2.06605,5.475684 -2.05339,1.977331 -5.71652,1.977331 -3.6758,0 -5.75454,-1.977331 -2.06605,-1.97733 -2.06605,-5.475684 0,-3.498354 2.06605,-5.475684 2.07874,-1.977331 5.75454,-1.977331 z"
             id="path6589" />
          <path
             d="m 336.81511,-37.539246 h 4.53772 v 14.196219 h -4.53772 z m 0,-5.526385 h 4.53772 v 3.701157 h -4.53772 z"
             id="path6591" />
          <path
             d="m 359.98536,-31.98751 v 8.644483 h -4.56307 v -1.406947 -5.209505 q 0,-1.837903 -0.0887,-2.535039 -0.0761,-0.697136 -0.27886,-1.026691 -0.26618,-0.443632 -0.72248,-0.68446 -0.45631,-0.253504 -1.03937,-0.253504 -1.41962,0 -2.23084,1.102742 -0.81121,1.090067 -0.81121,3.029371 v 6.984033 h -4.53772 v -14.196219 h 4.53772 v 2.078732 q 1.02669,-1.242169 2.18014,-1.825228 1.15344,-0.595734 2.54771,-0.595734 2.45899,0 3.72651,1.508348 1.28019,1.508349 1.28019,4.385618 z"
             id="path6593" />
          <path
             d="m 369.14953,-41.569958 v 4.030712 h 4.67715 v 3.24485 h -4.67715 v 6.020718 q 0,0.988665 0.39293,1.343571 0.39293,0.34223 1.55905,0.34223 h 2.33224 v 3.24485 h -3.89129 q -2.68714,0 -3.81523,-1.115417 -1.11542,-1.128093 -1.11542,-3.815234 v -6.020718 h -2.25618 v -3.24485 h 2.25618 v -4.030712 z"
             id="path6595" />
          <path
             d="m 390.7734,-30.479162 v 1.29287 h -10.60914 q 0.16477,1.597075 1.15344,2.395612 0.98867,0.798537 2.76319,0.798537 1.4323,0 2.92797,-0.418281 1.50835,-0.430957 3.09275,-1.29287 v 3.498354 q -1.60975,0.608409 -3.2195,0.912614 -1.60975,0.31688 -3.2195,0.31688 -3.85326,0 -5.99537,-1.95198 -2.12943,-1.964656 -2.12943,-5.501035 0,-3.473004 2.09141,-5.463009 2.10408,-1.990006 5.77989,-1.990006 3.34625,0 5.34893,2.015356 2.01536,2.015356 2.01536,5.386958 z m -4.66448,-1.508348 q 0,-1.29287 -0.76051,-2.078732 -0.74783,-0.798537 -1.96465,-0.798537 -1.31822,0 -2.14211,0.747836 -0.82389,0.735161 -1.02669,2.129433 z"
             id="path6597" />
          <path
             d="m 394.20839,-43.065631 h 4.53772 v 19.722604 h -4.53772 z"
             id="path6599" />
          <path
             d="m 403.10637,-37.539246 h 4.53772 v 14.196219 h -4.53772 z m 0,-5.526385 h 4.53772 v 3.701157 h -4.53772 z"
             id="path6601" />
          <path
             d="m 421.66285,-25.751314 q -0.93796,1.242169 -2.06606,1.825228 -1.12809,0.583059 -2.61109,0.583059 -2.59841,0 -4.29689,-2.040707 -1.69847,-2.053381 -1.69847,-5.22218 0,-3.181474 1.69847,-5.209505 1.69848,-2.040706 4.29689,-2.040706 1.483,0 2.61109,0.583059 1.1281,0.583059 2.06606,1.837903 v -2.104083 h 4.56307 v 12.763922 q 0,3.422303 -2.16746,5.22218 -2.15478,1.812553 -6.26154,1.812553 -1.3309,0 -2.57307,-0.202803 -1.24217,-0.202803 -2.49701,-0.621085 v -3.536379 q 1.19147,0.684461 2.33223,1.014016 1.14077,0.34223 2.29421,0.34223 2.23084,0 3.2702,-0.97599 1.03937,-0.97599 1.03937,-3.054722 z m -2.99135,-8.834611 q -1.40694,0 -2.1928,1.039366 -0.78587,1.039366 -0.78587,2.940645 0,1.95198 0.76052,2.965996 0.76051,1.00134 2.21815,1.00134 1.41963,0 2.20549,-1.039366 0.78586,-1.039366 0.78586,-2.92797 0,-1.901279 -0.78586,-2.940645 -0.78586,-1.039366 -2.20549,-1.039366 z"
             id="path6603" />
          <path
             d="m 444.75707,-30.479162 v 1.29287 h -10.60914 q 0.16478,1.597075 1.15344,2.395612 0.98867,0.798537 2.7632,0.798537 1.43229,0 2.92797,-0.418281 1.50834,-0.430957 3.09274,-1.29287 v 3.498354 q -1.60975,0.608409 -3.2195,0.912614 -1.60975,0.31688 -3.2195,0.31688 -3.85326,0 -5.99536,-1.95198 -2.12944,-1.964656 -2.12944,-5.501035 0,-3.473004 2.09141,-5.463009 2.10408,-1.990006 5.77989,-1.990006 3.34625,0 5.34893,2.015356 2.01536,2.015356 2.01536,5.386958 z m -4.66447,-1.508348 q 0,-1.29287 -0.76052,-2.078732 -0.74783,-0.798537 -1.96465,-0.798537 -1.31822,0 -2.14211,0.747836 -0.82389,0.735161 -1.02669,2.129433 z"
             id="path6605" />
          <path
             d="m 462.4643,-31.98751 v 8.644483 h -4.56307 v -1.406947 -5.209505 q 0,-1.837903 -0.0887,-2.535039 -0.076,-0.697136 -0.27886,-1.026691 -0.26617,-0.443632 -0.72248,-0.68446 -0.45631,-0.253504 -1.03937,-0.253504 -1.41962,0 -2.23083,1.102742 -0.81121,1.090067 -0.81121,3.029371 v 6.984033 h -4.53772 v -14.196219 h 4.53772 v 2.078732 q 1.02669,-1.242169 2.18013,-1.825228 1.15344,-0.595734 2.54771,-0.595734 2.45899,0 3.72651,1.508348 1.28019,1.508349 1.28019,4.385618 z"
             id="path6607" />
          <path
             d="m 471.62847,-41.569958 v 4.030712 h 4.67715 v 3.24485 h -4.67715 v 6.020718 q 0,0.988665 0.39294,1.343571 0.39293,0.34223 1.55904,0.34223 h 2.33224 v 3.24485 h -3.89128 q -2.68715,0 -3.81524,-1.115417 -1.11541,-1.128093 -1.11541,-3.815234 v -6.020718 h -2.25619 v -3.24485 h 2.25619 v -4.030712 z"
             id="path6609" />
          <path
             d="m 493.25237,-30.479162 v 1.29287 h -10.60914 q 0.16478,1.597075 1.15344,2.395612 0.98867,0.798537 2.7632,0.798537 1.43229,0 2.92797,-0.418281 1.50834,-0.430957 3.09274,-1.29287 v 3.498354 q -1.60975,0.608409 -3.2195,0.912614 -1.60975,0.31688 -3.2195,0.31688 -3.85325,0 -5.99536,-1.95198 -2.12944,-1.964656 -2.12944,-5.501035 0,-3.473004 2.09141,-5.463009 2.10408,-1.990006 5.77989,-1.990006 3.34625,0 5.34893,2.015356 2.01536,2.015356 2.01536,5.386958 z m -4.66447,-1.508348 q 0,-1.29287 -0.76051,-2.078732 -0.74784,-0.798537 -1.96466,-0.798537 -1.31822,0 -2.14211,0.747836 -0.82389,0.735161 -1.02669,2.129433 z"
             id="path6611" />
          <path
             d="m 497.15632,-28.248328 h 4.56307 v 4.905301 h -4.56307 z"
             id="path6613" />
        </g>
        <g
           id="g621"
           transform="matrix(0.87288563,0,0,-0.83341347,14.902784,255.47609)">
          <path
             class="cls-1"
             d="m 86.45,63.45 h 54 c 11.09,0 20.73,2.18 28.6,6.16 A 61.9,61.9 0 0 0 110.1,49.39 C 93.71,52.59 80.72,61.3 71.1,74.91 A 60,60 0 0 0 60.36,103.63 64.05,64.05 0 0 0 60.9,121 75,75 0 0 0 65.83,137 C 70.3,147.9 76,158.16 82,168.27 q 2.2,3.73 4.47,7.42 z"
             transform="translate(-60.01,-48.21)"
             id="path6"
             style="fill:#ff6100;fill-opacity:1" />
          <path
             class="cls-1"
             d="m 137.75,156.45 h -27.22 v 44.05 h -8 q 5.44,8 11.06,16 c 2.8,3.94 5.62,7.87 8.53,11.93 l 0.63,-0.83 c 2.79,-3.91 5.61,-7.81 8.38,-11.73 11.61,-16.46 22.83,-33.17 33,-50.6 3.63,-6.26 7.12,-12.58 10.27,-19.09 -9.77,6.82 -22.61,10.27 -36.65,10.27 z"
             transform="translate(-60.01,-48.21)"
             id="path8"
             style="fill:#ff6100;fill-opacity:1" />
          <path
             class="cls-2"
             d="m 286.41,115.5 h -48.62 c 2,9 8.21,13.68 17.07,13.68 6.65,0 11.48,-2.08 16.95,-7.16 l 11.34,10 c -6.52,8.09 -15.9,13 -28.55,13 -21,0 -36.5,-14.73 -36.5,-36.11 v -0.26 c 0,-20 14.21,-36.37 34.55,-36.37 23.33,0 34,18.12 34,37.93 v 0.26 c 0.02,2.03 -0.11,3.2 -0.24,5.03 z M 252.65,88.25 c -8.22,0 -13.56,5.87 -15.13,14.86 h 29.86 C 266.2,94.25 261,88.25 252.65,88.25 Z"
             transform="translate(-60.01,-48.21)"
             id="path10"
             style="fill:#222220" />
          <path
             class="cls-2"
             d="m 324.08,145.09 c -21,0 -36.37,-16.17 -36.37,-36.11 v -0.26 c 0,-20 15.25,-36.37 36.63,-36.37 13.16,0 21.38,4.43 27.9,11.73 l -12.13,13 c -4.43,-4.7 -8.86,-7.7 -15.9,-7.7 -9.91,0 -16.95,8.74 -16.95,19 v 0.26 c 0,10.69 6.91,19.29 17.73,19.29 6.65,0 11.21,-2.87 16,-7.43 l 11.61,11.73 c -6.75,7.51 -14.6,12.86 -28.52,12.86 z"
             transform="translate(-60.01,-48.21)"
             id="path12"
             style="fill:#222220" />
          <path
             class="cls-2"
             d="m 398.9,143.52 v -9.9 c -4.57,5.86 -10.43,11.21 -20.47,11.21 -15,0 -23.72,-9.91 -23.72,-25.94 V 73.65 h 19.81 v 39 c 0,9.39 4.43,14.21 12,14.21 7.57,0 12.38,-4.86 12.38,-14.23 v -39 h 19.81 v 69.87 z"
             transform="translate(-60.01,-48.21)"
             id="path14"
             style="fill:#222220" />
          <path
             class="cls-2"
             d="M 467.07,143.52 V 136 c -4.83,5.35 -11.47,8.87 -21.12,8.87 -13.17,0 -24,-7.56 -24,-21.38 v -0.26 c 0,-15.25 11.6,-22.29 28.16,-22.29 a 49.82,49.82 0 0 1 17.08,2.86 v -1.17 c 0,-8.21 -5.09,-12.78 -15,-12.78 -7.56,0 -12.91,1.44 -19.3,3.79 l -5,-15.13 c 7.69,-3.39 15.25,-5.6 27.11,-5.6 21.64,0 31.16,11.21 31.16,30.11 v 40.54 z m 0.39,-28.15 a 30.62,30.62 0 0 0 -12.64,-2.61 c -8.48,0 -13.69,3.39 -13.69,9.65 v 0.26 c 0,5.34 4.43,8.47 10.82,8.47 9.25,0 15.51,-5.08 15.51,-12.25 z"
             transform="translate(-60.01,-48.21)"
             id="path16"
             style="fill:#222220" />
          <path
             class="cls-3"
             d="m 258.06,177.45 a 13.71,13.71 0 0 1 -3.83,4.64 16.94,16.94 0 0 1 -5.64,2.8 24.48,24.48 0 0 1 -6.82,0.93 h -11 v 15.91 h -5.09 v -45.08 h 16.92 a 22.57,22.57 0 0 1 6.93,1 15.82,15.82 0 0 1 5.34,2.83 12.16,12.16 0 0 1 3.41,4.51 14.54,14.54 0 0 1 1.19,6 14,14 0 0 1 -1.41,6.46 z m -7,-13.62 a 14.4,14.4 0 0 0 -8.81,-2.48 h -11.43 v 19.83 H 242 a 17.21,17.21 0 0 0 5.07,-0.7 11.94,11.94 0 0 0 3.94,-2 9,9 0 0 0 2.51,-3.16 9.26,9.26 0 0 0 0.88,-4.09 q -0.01,-4.92 -3.34,-7.4 z"
             transform="translate(-60.01,-48.21)"
             id="path18"
             style="fill:#ff6100;fill-opacity:1" />
          <path
             class="cls-3"
             d="m 312.6,201.73 h -5.47 l -5.28,-11.92 H 277.31 L 272,201.73 h -5.22 l 20.55,-45.4 h 4.76 z m -23,-39.42 -10.3,23 h 20.54 z"
             transform="translate(-60.01,-48.21)"
             id="path20"
             style="fill:#ff6100;fill-opacity:1" />
          <path
             class="cls-3"
             d="M 359,201.73 345.9,184.21 H 333 v 17.52 h -5.09 v -45.08 h 19.39 a 21.94,21.94 0 0 1 6.72,1 15.2,15.2 0 0 1 5.12,2.74 12.11,12.11 0 0 1 3.29,4.26 12.87,12.87 0 0 1 1.16,5.5 13.39,13.39 0 0 1 -0.91,5.06 11.52,11.52 0 0 1 -2.54,3.87 14.22,14.22 0 0 1 -3.9,2.74 18,18 0 0 1 -4.89,1.54 l 13.85,18.41 z m -3.49,-38 q -3,-2.36 -8.52,-2.36 H 333 v 18.33 h 13.9 a 16,16 0 0 0 4.65,-0.64 11.36,11.36 0 0 0 3.68,-1.85 8.32,8.32 0 0 0 2.42,-2.94 8.68,8.68 0 0 0 0.87,-3.94 7.89,7.89 0 0 0 -3.04,-6.62 z"
             transform="translate(-60.01,-48.21)"
             id="path22"
             style="fill:#ff6100;fill-opacity:1" />
          <path
             class="cls-3"
             d="m 425.5,199.28 -3.48,3.8 -5.93,-5.41 a 23.58,23.58 0 0 1 -6.44,3.54 24.3,24.3 0 0 1 -17.16,-0.58 22.24,22.24 0 0 1 -7.24,-5 22.46,22.46 0 0 1 -4.67,-7.41 24.24,24.24 0 0 1 -1.65,-8.92 23.89,23.89 0 0 1 1.68,-8.92 23.22,23.22 0 0 1 4.7,-7.44 22.53,22.53 0 0 1 7.28,-5.12 24.43,24.43 0 0 1 18.77,0 22.24,22.24 0 0 1 11.91,12.46 25,25 0 0 1 0.26,17.1 21.85,21.85 0 0 1 -4,7 z m -21.51,-12 3.41,-3.8 8.31,7.53 a 18.16,18.16 0 0 0 2.89,-5.37 19.35,19.35 0 0 0 1,-6.35 20.05,20.05 0 0 0 -1.32,-7.28 17.83,17.83 0 0 0 -3.7,-5.92 18.11,18.11 0 0 0 -5.63,-4 16.94,16.94 0 0 0 -7.12,-1.48 17.23,17.23 0 0 0 -7.12,1.45 16.63,16.63 0 0 0 -5.57,4 18.49,18.49 0 0 0 -3.64,5.89 19.72,19.72 0 0 0 -1.32,7.24 20,20 0 0 0 1.32,7.28 17.75,17.75 0 0 0 3.71,5.92 18,18 0 0 0 5.63,4 16.94,16.94 0 0 0 7.16,1.41 17.46,17.46 0 0 0 5.67,-0.9 15.84,15.84 0 0 0 4.7,-2.52 z"
             transform="translate(-60.01,-48.21)"
             id="path24"
             style="fill:#ff6100;fill-opacity:1" />
          <path
             class="cls-3"
             d="m 479,182.47 a 25.45,25.45 0 0 1 -1.36,8.69 16.87,16.87 0 0 1 -3.83,6.25 15.8,15.8 0 0 1 -5.92,3.77 22.33,22.33 0 0 1 -7.7,1.26 22.09,22.09 0 0 1 -7.63,-1.26 16.13,16.13 0 0 1 -5.93,-3.73 16.86,16.86 0 0 1 -3.83,-6.15 24.42,24.42 0 0 1 -1.35,-8.44 v -26.21 h 5.09 v 25.89 q 0,7.34 3.64,11.27 3.64,3.93 10.14,3.93 6.24,0 9.92,-3.74 3.68,-3.74 3.67,-11.14 V 156.65 H 479 Z"
             transform="translate(-60.01,-48.21)"
             id="path26"
             style="fill:#ff6100;fill-opacity:1" />
          <path
             class="cls-3"
             d="m 530,161.28 h -27.5 v 15.4 h 24.6 v 4.63 h -24.6 v 15.78 h 27.82 v 4.64 H 497.43 V 156.65 H 530 Z"
             transform="translate(-60.01,-48.21)"
             id="path28"
             style="fill:#ff6100;fill-opacity:1" />
          <path
             class="cls-3"
             d="m 589.33,188 a 23.57,23.57 0 0 1 -4.7,7.44 22.49,22.49 0 0 1 -7.28,5.12 24.31,24.31 0 0 1 -18.77,0 22.28,22.28 0 0 1 -7.25,-5 22.63,22.63 0 0 1 -4.67,-7.41 24.44,24.44 0 0 1 -1.64,-8.92 24.09,24.09 0 0 1 1.67,-8.92 23.57,23.57 0 0 1 4.7,-7.44 22.64,22.64 0 0 1 7.28,-5.12 24.43,24.43 0 0 1 18.77,0 22.22,22.22 0 0 1 11.92,12.46 24.52,24.52 0 0 1 1.64,8.92 24,24 0 0 1 -1.67,8.87 z m -4.93,-16 a 17.63,17.63 0 0 0 -9.34,-9.91 16.92,16.92 0 0 0 -7.11,-1.48 17.23,17.23 0 0 0 -7.12,1.45 16.53,16.53 0 0 0 -5.57,4 18.32,18.32 0 0 0 -3.64,5.89 19.72,19.72 0 0 0 -1.32,7.24 20,20 0 0 0 1.32,7.28 17.69,17.69 0 0 0 9.34,9.92 16.92,16.92 0 0 0 7.11,1.48 17.23,17.23 0 0 0 7.12,-1.45 16.81,16.81 0 0 0 5.57,-4 18.54,18.54 0 0 0 3.64,-5.89 19.78,19.78 0 0 0 1.32,-7.25 20.05,20.05 0 0 0 -1.32,-7.28 z"
             transform="translate(-60.01,-48.21)"
             id="path30"
             style="fill:#ff6100;fill-opacity:1" />
          <path
             class="cls-4"
             d="M 161.79,90 A 125.73,125.73 0 0 0 146.7,88.67 v -3 a 2.82,2.82 0 1 0 -5.63,0 v 2.87 c -1.92,0 -3.88,-0.06 -5.94,-0.06 a 122.67,122.67 0 0 0 -20.56,1.33 8.61,8.61 0 0 0 -7.29,8.19 v 20.22 a 8.61,8.61 0 0 0 7.29,8.27 122.67,122.67 0 0 0 20.56,1.33 c 2.06,0 4,0 5.94,-0.06 v 2.87 a 2.82,2.82 0 1 0 5.63,0 v -3 a 126.13,126.13 0 0 0 15.09,-1.33 8.61,8.61 0 0 0 7.43,-8.31 V 98.28 A 8.59,8.59 0 0 0 161.79,90"
             transform="translate(-60.01,-48.21)"
             id="path32"
             style="fill:#b7b7b7" />
          <path
             class="cls-5"
             d="m 124.18,122.21 a 12.49,12.49 0 0 1 -6.67,-1.82 3.82,3.82 0 0 1 -1.78,-3.25 v -18 a 3.79,3.79 0 0 1 1.78,-3.24 12.39,12.39 0 0 1 6.67,-1.83 z"
             transform="translate(-60.01,-48.21)"
             id="path34"
             style="fill:#010307" />
          <path
             class="cls-5"
             d="m 149.42,120.85 a 23.39,23.39 0 0 1 -8.35,1.3 v -28 a 23.39,23.39 0 0 1 8.35,1.3 4.54,4.54 0 0 1 2.91,4.25 v 16.9 a 4.54,4.54 0 0 1 -2.91,4.25"
             transform="translate(-60.01,-48.21)"
             id="path36"
             style="fill:#010307" />
        </g>
      </g>
    </g>
  </g>
</svg>
