<?xml version="1.0" encoding="UTF-8" standalone="no"?>
<!-- Created with Inkscape (http://www.inkscape.org/) -->

<svg
   version="1.1"
   id="svg1192"
   width="666.66669"
   height="666.66669"
   viewBox="0 0 666.66669 666.66669"
   sodipodi:docname="logo-total.svg"
   inkscape:version="1.2.2 (1:1.2.2+202305151914+b0a8486541)"
   xmlns:inkscape="http://www.inkscape.org/namespaces/inkscape"
   xmlns:sodipodi="http://sodipodi.sourceforge.net/DTD/sodipodi-0.dtd"
   xmlns="http://www.w3.org/2000/svg"
   xmlns:svg="http://www.w3.org/2000/svg">
  <defs
     id="defs1196">
    <clipPath
       clipPathUnits="userSpaceOnUse"
       id="clipPath1222">
      <path
         d="M 0,500 H 500 V 0 H 0 Z"
         id="path1220" />
    </clipPath>
  </defs>
  <sodipodi:namedview
     id="namedview1194"
     pagecolor="#ffffff"
     bordercolor="#000000"
     borderopacity="0.25"
     inkscape:showpageshadow="2"
     inkscape:pageopacity="0.0"
     inkscape:pagecheckerboard="0"
     inkscape:deskcolor="#d1d1d1"
     showgrid="false"
     inkscape:zoom="0.51760215"
     inkscape:cx="274.34198"
     inkscape:cy="375.77124"
     inkscape:window-width="1366"
     inkscape:window-height="654"
     inkscape:window-x="0"
     inkscape:window-y="27"
     inkscape:window-maximized="1"
     inkscape:current-layer="g1200">
    <inkscape:page
       x="0"
       y="0"
       id="page1198"
       width="666.66669"
       height="666.66669"
       inkscape:export-filename="Página 1.png"
       inkscape:export-xdpi="96"
       inkscape:export-ydpi="96" />
  </sodipodi:namedview>
  <g
     id="g1200"
     inkscape:groupmode="layer"
     inkscape:label="Page 1"
     transform="matrix(1.3333333,0,0,-1.3333333,0,666.66667)">
    <g
       id="g6673">
      <g
         id="g6541"
         transform="translate(2.0949945,43.494355)">
        <g
           aria-label="GEOCERCA"
           transform="scale(1.0686299,-0.93577768)"
           id="text1367"
           style="font-weight:bold;font-size:66.3301px;-inkscape-font-specification:'sans-serif, Bold';fill:#ff6100;stroke-width:0.379045">
          <path
             d="m 78.655371,-74.195099 q -4.663836,2.267142 -9.683936,3.400713 -5.0201,1.133571 -10.364078,1.133571 -12.080629,0 -19.141157,-6.736651 -7.060529,-6.769038 -7.060529,-18.331463 0,-11.691981 7.19008,-18.396241 7.190079,-6.70426 19.691748,-6.70426 4.825774,0 9.230508,0.90686 4.437121,0.90685 8.356038,2.68818 v 10.00781 q -4.048468,-2.29953 -8.064549,-3.4331 -3.983692,-1.13357 -7.999773,-1.13357 -7.449181,0 -11.497649,4.17802 -4.01608,4.14563 -4.01608,11.886301 0,7.675895 3.886529,11.853914 3.886529,4.178019 11.044221,4.178019 1.943265,0 3.59504,-0.226714 1.684162,-0.259102 3.01206,-0.777306 v -9.392446 h -7.61112 V -97.4495 h 19.432647 z"
             id="path1923" />
          <path
             d="m 89.634815,-118.95496 h 33.650865 v 9.42483 H 102.1041 v 9.00379 h 19.91846 v 9.424838 H 102.1041 v 11.076609 h 21.89411 v 9.424833 H 89.634815 Z"
             id="path1925" />
          <path
             d="m 157.03372,-110.79325 q -5.70025,0 -8.84186,4.21041 -3.14161,4.2104 -3.14161,11.853911 0,7.61112 3.14161,11.821527 3.14161,4.210406 8.84186,4.210406 5.73263,0 8.87424,-4.210406 3.14161,-4.210407 3.14161,-11.821527 0,-7.643511 -3.14161,-11.853911 -3.14161,-4.21041 -8.87424,-4.21041 z m 0,-9.03618 q 11.65958,0 18.26668,6.67187 6.6071,6.67188 6.6071,18.428631 0,11.724363 -6.6071,18.396239 -6.6071,6.671875 -18.26668,6.671875 -11.6272,0 -18.26669,-6.671875 -6.6071,-6.671876 -6.6071,-18.396239 0,-11.756751 6.6071,-18.428631 6.63949,-6.67187 18.26669,-6.67187 z"
             id="path1927" />
          <path
             d="m 229.67942,-73.255855 q -3.4331,1.781326 -7.15769,2.688183 -3.72459,0.906857 -7.77306,0.906857 -12.08063,0 -19.14116,-6.736651 -7.06053,-6.769038 -7.06053,-18.331463 0,-11.594811 7.06053,-18.331461 7.06053,-6.76904 19.14116,-6.76904 4.04847,0 7.77306,0.90686 3.72459,0.90685 7.15769,2.68818 v 10.00781 q -3.46549,-2.3643 -6.83382,-3.46549 -3.36832,-1.10118 -7.09291,-1.10118 -6.67188,0 -10.49363,4.27518 -3.82175,4.27518 -3.82175,11.789141 0,7.481569 3.82175,11.756751 3.82175,4.275182 10.49363,4.275182 3.72459,0 7.09291,-1.101183 3.36833,-1.101183 6.83382,-3.465489 z"
             id="path1929" />
          <path
             d="m 240.01112,-118.95496 h 33.65086 v 9.42483 H 252.4804 v 9.00379 h 19.91846 v 9.424838 H 252.4804 v 11.076609 h 21.89411 v 9.424833 h -34.36339 z"
             id="path1931" />
          <path
             d="m 303.03767,-97.514275 q 3.91891,0 5.60308,-1.457449 1.71655,-1.457446 1.71655,-4.793386 0,-3.30355 -1.71655,-4.72861 -1.68417,-1.42506 -5.60308,-1.42506 h -5.24682 v 12.404505 z m -5.24682,8.61514 v 18.299075 h -12.46928 v -48.3549 h 19.044 q 9.55438,0 13.9915,3.20638 4.46951,3.20639 4.46951,10.13737 0,4.79338 -2.33192,7.87022 -2.29953,3.076836 -6.96336,4.534285 2.55863,0.582979 4.56667,2.655795 2.04043,2.040428 4.11324,6.218447 l 6.76904,13.732403 h -13.27897 l -5.89457,-12.015853 q -1.78133,-3.627427 -3.62743,-4.955325 -1.81371,-1.327897 -4.85816,-1.327897 z"
             id="path1933" />
          <path
             d="m 374.74413,-73.255855 q -3.4331,1.781326 -7.15769,2.688183 -3.72459,0.906857 -7.77306,0.906857 -12.08063,0 -19.14116,-6.736651 -7.06052,-6.769038 -7.06052,-18.331463 0,-11.594811 7.06052,-18.331461 7.06053,-6.76904 19.14116,-6.76904 4.04847,0 7.77306,0.90686 3.72459,0.90685 7.15769,2.68818 v 10.00781 q -3.46549,-2.3643 -6.83381,-3.46549 -3.36833,-1.10118 -7.09292,-1.10118 -6.67187,0 -10.49363,4.27518 -3.82175,4.27518 -3.82175,11.789141 0,7.481569 3.82175,11.756751 3.82176,4.275182 10.49363,4.275182 3.72459,0 7.09292,-1.101183 3.36832,-1.101183 6.83381,-3.465489 z"
             id="path1935" />
          <path
             d="m 414.41911,-79.409526 h -19.49742 l -3.07684,8.809466 h -12.53406 l 17.91043,-48.3549 h 14.86597 l 17.91043,48.3549 h -12.53406 z m -16.3882,-8.971405 h 13.24659 l -6.6071,-19.238319 z"
             id="path1937" />
        </g>
        <g
           id="g1208"
           transform="matrix(1.3738492,0,0,1.4611326,18.322107,123.36783)">
          <path
             d="M 0,0 H 333.038"
             style="fill:none;stroke:#ff6100;stroke-width:2.766;stroke-linecap:butt;stroke-linejoin:miter;stroke-miterlimit:10;stroke-dasharray:none;stroke-opacity:1"
             id="path1210" />
        </g>
        <g
           id="g1212"
           transform="matrix(1.3738492,0,0,1.4611326,18.322107,56.16142)">
          <path
             d="M 0,0 H 333.038"
             style="fill:none;stroke:#ff6100;stroke-width:2.766;stroke-linecap:butt;stroke-linejoin:miter;stroke-miterlimit:10;stroke-dasharray:none;stroke-opacity:1"
             id="path1214" />
        </g>
        <g
           id="g1216"
           transform="matrix(1.3738492,0,0,1.4611326,-95.557213,-140.36719)">
          <g
             id="g1218"
             clip-path="url(#clipPath1222)">
            <g
               id="g1224"
               transform="translate(247.7051,285.4076)">
              <path
                 d="m 0,0 c 0,46.39 36.543,80.088 86.434,80.088 49.891,0 86.433,-33.698 86.433,-80.088 0,-46.391 -36.542,-80.089 -86.433,-80.089 C 36.543,-80.089 0,-46.391 0,0"
                 style="fill:#ff6100;fill-opacity:1;fill-rule:nonzero;stroke:none"
                 id="path1226" />
            </g>
            <g
               id="g1228"
               transform="translate(346.0401,223.765)">
              <path
                 d="m 0,0 c -49.892,0 -86.434,33.698 -86.434,80.089 0,12.082 2.499,23.293 7.047,33.282 -11.987,-13.664 -18.948,-31.487 -18.948,-51.728 0,-46.391 36.543,-80.089 86.434,-80.089 36.896,0 66.471,18.442 79.385,46.805 C 51.999,10.709 28.121,0 0,0"
                 style="fill:#f84b00;fill-opacity:1;fill-rule:nonzero;stroke:none"
                 id="path1230" />
            </g>
            <g
               id="g1232"
               transform="translate(369.7442,296.3314)">
              <path
                 d="m 0,0 c 0,-19.665 -35.605,-62.004 -35.605,-62.004 0,0 -35.606,42.339 -35.606,62.004 0,19.664 15.941,35.605 35.606,35.605 C -15.941,35.605 0,19.664 0,0"
                 style="fill:#ffffff;fill-opacity:1;fill-rule:nonzero;stroke:none"
                 id="path1234" />
            </g>
            <g
               id="g1236"
               transform="translate(354.7862,298.351)">
              <path
                 d="m 0,0 c 0,-11.403 -9.244,-20.647 -20.647,-20.647 -11.404,0 -20.648,9.244 -20.648,20.647 0,11.403 9.244,20.647 20.648,20.647 C -9.244,20.647 0,11.403 0,0"
                 style="fill:#00c000;fill-opacity:1;fill-rule:nonzero;stroke:none"
                 id="path1238" />
            </g>
            <g
               id="g1240"
               transform="translate(186.8682,289.5638)">
              <path
                 d="m 0,0 h 44.859 v -64.771 c -18.6,-12.69 -44.204,-19.474 -66.741,-19.474 -49.454,0 -85.558,33.043 -85.558,80.089 0,47.045 36.104,80.088 86.653,80.088 30.195,0 54.485,-10.503 70.022,-29.542 L 16.192,17.288 c -9.628,11.16 -20.788,16.848 -34.353,16.848 -22.758,0 -37.201,-14.66 -37.201,-38.292 0,-22.978 14.443,-38.293 36.544,-38.293 6.344,0 12.471,1.093 18.818,3.719 z"
                 style="fill:#ff6100;fill-opacity:1;fill-rule:nonzero;stroke:none"
                 id="path1242" />
            </g>
            <g
               id="g1244"
               transform="translate(194.4248,217.7005)">
              <path
                 d="m 0,0 c -57.497,0 -104.108,46.611 -104.108,104.108 0,1.628 0.048,3.246 0.123,4.856 -7.069,-11.781 -11.012,-25.751 -11.012,-41.257 0,-47.046 36.104,-80.089 85.559,-80.089 22.254,0 47.485,6.627 66.025,19.011 C 25.202,2.354 12.878,0 0,0"
                 style="fill:#f84b00;fill-opacity:1;fill-rule:nonzero;stroke:none"
                 id="path1246" />
            </g>
          </g>
        </g>
        <g
           aria-label="Sistema de parqueo inteligente.
"
           transform="scale(0.91726936,-1.0901923)"
           id="text6507"
           style="font-weight:bold;font-size:25.9588px;-inkscape-font-specification:'sans-serif, Bold';fill:#ff6100;stroke-width:0.148344">
          <path
             d="m 47.858678,-41.671359 v 4.005362 q -1.559049,-0.697136 -3.042047,-1.052042 -1.482998,-0.354905 -2.801218,-0.354905 -1.749177,0 -2.58574,0.481657 -0.836563,0.481658 -0.836563,1.495673 0,0.760512 0.557709,1.191469 0.570383,0.418281 2.053381,0.722486 l 2.078732,0.418281 q 3.156124,0.63376 4.487019,1.92663 1.330896,1.29287 1.330896,3.675806 0,3.130774 -1.863254,4.664472 -1.850578,1.521024 -5.665812,1.521024 -1.799878,0 -3.612431,-0.342231 -1.812553,-0.34223 -3.625105,-1.014015 v -4.119439 q 1.812552,0.963315 3.498353,1.457648 1.698477,0.481657 3.270201,0.481657 1.597074,0 2.446312,-0.532358 0.849238,-0.532358 0.849238,-1.521023 0,-0.887264 -0.583059,-1.368922 -0.570383,-0.481657 -2.29421,-0.861913 l -1.888604,-0.418281 q -2.839244,-0.60841 -4.157464,-1.939305 -1.305545,-1.330896 -1.305545,-3.58708 0,-2.826569 1.825228,-4.347592 1.825228,-1.521024 5.247531,-1.521024 1.559049,0 3.206824,0.240829 1.647776,0.228154 3.409628,0.697136 z"
             id="path6559" />
          <path
             d="m 53.18226,-37.539246 h 4.53772 v 14.196219 h -4.53772 z m 0,-5.526385 h 4.53772 v 3.701157 h -4.53772 z"
             id="path6561" />
          <path
             d="m 73.171043,-37.095614 v 3.447653 q -1.457647,-0.608409 -2.813893,-0.912614 -1.356246,-0.304204 -2.560389,-0.304204 -1.29287,0 -1.92663,0.329555 -0.621085,0.31688 -0.621085,0.988665 0,0.545033 0.468983,0.836563 0.481657,0.291529 1.711151,0.430956 l 0.798537,0.114077 q 3.485679,0.443632 4.689822,1.457648 1.204144,1.014015 1.204144,3.181474 0,2.268859 -1.673126,3.409627 -1.673126,1.140768 -4.994027,1.140768 -1.406946,0 -2.915295,-0.228154 -1.495673,-0.215478 -3.080072,-0.65911 v -3.447653 q 1.356246,0.65911 2.775868,0.988665 1.432297,0.329555 2.902619,0.329555 1.330896,0 2.002681,-0.367581 0.671786,-0.36758 0.671786,-1.090066 0,-0.60841 -0.468983,-0.899939 -0.456307,-0.304205 -1.837903,-0.468982 l -0.798537,-0.101402 q -3.029372,-0.380256 -4.246191,-1.406947 -1.216818,-1.02669 -1.216818,-3.118098 0,-2.256184 1.546374,-3.346251 1.546373,-1.090067 4.740522,-1.090067 1.254845,0 2.636441,0.190128 1.381596,0.190128 3.004021,0.595734 z"
             id="path6563" />
          <path
             d="m 82.487312,-41.569958 v 4.030712 h 4.677147 v 3.24485 h -4.677147 v 6.020718 q 0,0.988665 0.392931,1.343571 0.392931,0.34223 1.559049,0.34223 h 2.332236 v 3.24485 h -3.891285 q -2.687141,0 -3.815234,-1.115417 -1.115417,-1.128093 -1.115417,-3.815234 v -6.020718 h -2.256185 v -3.24485 h 2.256185 v -4.030712 z"
             id="path6565" />
          <path
             d="m 104.11119,-30.479162 v 1.29287 H 93.502056 q 0.164778,1.597075 1.153443,2.395612 0.988665,0.798537 2.763192,0.798537 1.432297,0 2.927969,-0.418281 1.50835,-0.430957 3.09275,-1.29287 v 3.498354 q -1.60975,0.608409 -3.2195,0.912614 -1.60975,0.31688 -3.2195,0.31688 -3.853259,0 -5.995367,-1.95198 -2.129433,-1.964656 -2.129433,-5.501035 0,-3.473004 2.091407,-5.463009 2.104083,-1.990006 5.779889,-1.990006 3.346254,0 5.348934,2.015356 2.01535,2.015356 2.01535,5.386958 z m -4.664467,-1.508348 q 0,-1.29287 -0.760512,-2.078732 -0.747837,-0.798537 -1.964655,-0.798537 -1.318221,0 -2.142108,0.747836 -0.823888,0.735161 -1.026691,2.129433 z"
             id="path6567" />
          <path
             d="m 120.70303,-35.181659 q 0.86191,-1.318221 2.04071,-2.002681 1.19146,-0.697136 2.61109,-0.697136 2.44631,0 3.7265,1.508348 1.2802,1.508349 1.2802,4.385618 v 8.644483 h -4.56307 v -7.402314 q 0.0127,-0.164778 0.0127,-0.34223 0.0127,-0.177453 0.0127,-0.507008 0,-1.508348 -0.44363,-2.180134 -0.44364,-0.68446 -1.4323,-0.68446 -1.29287,0 -2.00268,1.064716 -0.69714,1.064717 -0.72249,3.080073 v 6.971357 h -4.56307 v -7.402314 q 0,-2.357586 -0.4056,-3.029372 -0.40561,-0.68446 -1.44498,-0.68446 -1.30554,0 -2.01535,1.077391 -0.70981,1.064717 -0.70981,3.054722 v 6.984033 h -4.56307 v -14.196219 h 4.56307 v 2.078732 q 0.83656,-1.204143 1.91395,-1.812552 1.09007,-0.60841 2.39561,-0.60841 1.47033,0 2.59842,0.709811 1.12809,0.709811 1.71115,1.990006 z"
             id="path6569" />
          <path
             d="m 140.95798,-29.731325 q -1.41962,0 -2.1421,0.481657 -0.70982,0.481657 -0.70982,1.419622 0,0.861913 0.57039,1.356246 0.58306,0.481657 1.60975,0.481657 1.28019,0 2.15478,-0.912614 0.87459,-0.925289 0.87459,-2.306885 v -0.519683 z m 6.93333,-1.711152 v 8.09945 h -4.57574 v -2.104082 q -0.91261,1.292869 -2.05338,1.888604 -1.14077,0.583059 -2.77587,0.583059 -2.20548,0 -3.58708,-1.280195 -1.36892,-1.29287 -1.36892,-3.346252 0,-2.497013 1.71115,-3.663131 1.72383,-1.166118 5.39963,-1.166118 h 2.67447 v -0.354905 q 0,-1.077392 -0.84924,-1.571725 -0.84924,-0.507007 -2.64911,-0.507007 -1.45765,0 -2.7125,0.291529 -1.25484,0.29153 -2.33223,0.874589 v -3.460329 q 1.45765,-0.354905 2.92797,-0.532358 1.47032,-0.190128 2.94064,-0.190128 3.84059,0 5.53906,1.521024 1.71115,1.508348 1.71115,4.917975 z"
             id="path6571" />
          <path
             d="m 170.80807,-35.460514 v -7.605117 h 4.56307 v 19.722604 h -4.56307 v -2.053382 q -0.93797,1.254845 -2.06606,1.837904 -1.12809,0.583059 -2.61109,0.583059 -2.62376,0 -4.30956,-2.078732 -1.68581,-2.091408 -1.68581,-5.374283 0,-3.282876 1.68581,-5.361608 1.6858,-2.091407 4.30956,-2.091407 1.47032,0 2.59842,0.595734 1.14076,0.583059 2.07873,1.825228 z m -2.99135,9.189517 q 1.45765,0 2.21816,-1.064717 0.77319,-1.064716 0.77319,-3.092747 0,-2.028031 -0.77319,-3.092748 -0.76051,-1.064716 -2.21816,-1.064716 -1.44497,0 -2.21816,1.064716 -0.76051,1.064717 -0.76051,3.092748 0,2.028031 0.76051,3.092747 0.77319,1.064717 2.21816,1.064717 z"
             id="path6573" />
          <path
             d="m 193.90227,-30.479162 v 1.29287 h -10.60914 q 0.16478,1.597075 1.15345,2.395612 0.98866,0.798537 2.76319,0.798537 1.4323,0 2.92797,-0.418281 1.50835,-0.430957 3.09275,-1.29287 v 3.498354 q -1.60975,0.608409 -3.2195,0.912614 -1.60975,0.31688 -3.2195,0.31688 -3.85326,0 -5.99537,-1.95198 -2.12943,-1.964656 -2.12943,-5.501035 0,-3.473004 2.0914,-5.463009 2.10409,-1.990006 5.77989,-1.990006 3.34625,0 5.34894,2.015356 2.01535,2.015356 2.01535,5.386958 z m -4.66447,-1.508348 q 0,-1.29287 -0.76051,-2.078732 -0.74784,-0.798537 -1.96466,-0.798537 -1.31822,0 -2.14211,0.747836 -0.82388,0.735161 -1.02669,2.129433 z"
             id="path6575" />
          <path
             d="m 210.91239,-25.396409 v 7.453015 h -4.53772 v -19.595852 h 4.53772 v 2.078732 q 0.93796,-1.242169 2.07873,-1.825228 1.14077,-0.595734 2.62376,-0.595734 2.62377,0 4.30957,2.091407 1.6858,2.078732 1.6858,5.361608 0,3.282875 -1.6858,5.374283 -1.6858,2.078732 -4.30957,2.078732 -1.48299,0 -2.62376,-0.583059 -1.14077,-0.595735 -2.07873,-1.837904 z m 3.01669,-9.189516 q -1.45764,0 -2.24351,1.077391 -0.77318,1.064717 -0.77318,3.080073 0,2.015356 0.77318,3.092747 0.78587,1.064717 2.24351,1.064717 1.45765,0 2.21816,-1.064717 0.77319,-1.064716 0.77319,-3.092747 0,-2.028031 -0.77319,-3.092748 -0.76051,-1.064716 -2.21816,-1.064716 z"
             id="path6577" />
          <path
             d="m 231.31945,-29.731325 q -1.41962,0 -2.14211,0.481657 -0.70981,0.481657 -0.70981,1.419622 0,0.861913 0.57038,1.356246 0.58306,0.481657 1.60975,0.481657 1.2802,0 2.15479,-0.912614 0.87458,-0.925289 0.87458,-2.306885 v -0.519683 z m 6.93333,-1.711152 v 8.09945 h -4.57575 v -2.104082 q -0.91261,1.292869 -2.05338,1.888604 -1.14076,0.583059 -2.77586,0.583059 -2.20549,0 -3.58708,-1.280195 -1.36893,-1.29287 -1.36893,-3.346252 0,-2.497013 1.71116,-3.663131 1.72382,-1.166118 5.39963,-1.166118 h 2.67446 v -0.354905 q 0,-1.077392 -0.84923,-1.571725 -0.84924,-0.507007 -2.64912,-0.507007 -1.45765,0 -2.71249,0.291529 -1.25484,0.29153 -2.33224,0.874589 v -3.460329 q 1.45765,-0.354905 2.92797,-0.532358 1.47033,-0.190128 2.94065,-0.190128 3.84058,0 5.53906,1.521024 1.71115,1.508348 1.71115,4.917975 z"
             id="path6579" />
          <path
             d="m 253.01938,-33.673311 q -0.59573,-0.278854 -1.19147,-0.405606 -0.58305,-0.139427 -1.17879,-0.139427 -1.74918,0 -2.69981,1.128092 -0.93797,1.115417 -0.93797,3.206824 v 6.540401 h -4.53772 v -14.196219 h 4.53772 v 2.332236 q 0.87459,-1.394271 2.00268,-2.028031 1.14077,-0.646435 2.72517,-0.646435 0.22815,0 0.49433,0.02535 0.26618,0.01268 0.77319,0.07605 z"
             id="path6581" />
          <path
             d="m 261.94273,-34.585925 q -1.44497,0 -2.21816,1.064716 -0.76051,1.064717 -0.76051,3.092748 0,2.028031 0.76051,3.092747 0.77319,1.064717 2.21816,1.064717 1.45765,0 2.21816,-1.064717 0.77319,-1.064716 0.77319,-3.092747 0,-2.028031 -0.77319,-3.092748 -0.76051,-1.064716 -2.21816,-1.064716 z m 2.99135,9.189516 q -0.93797,1.254845 -2.06606,1.837904 -1.12809,0.583059 -2.61109,0.583059 -2.62377,0 -4.30957,-2.078732 -1.6858,-2.091408 -1.6858,-5.374283 0,-3.282876 1.6858,-5.348932 1.6858,-2.078732 4.30957,-2.078732 1.483,0 2.61109,0.583059 1.12809,0.583059 2.06606,1.837903 v -2.104083 h 4.56307 v 19.595852 h -4.56307 z"
             id="path6583" />
          <path
             d="m 273.70531,-28.869412 v -8.669834 h 4.56307 v 1.419622 q 0,1.153443 -0.0127,2.90262 -0.0127,1.736502 -0.0127,2.319561 0,1.711151 0.0887,2.471663 0.0887,0.747836 0.30421,1.090066 0.27885,0.443632 0.72248,0.684461 0.45631,0.240829 1.03937,0.240829 1.41962,0 2.23084,-1.090067 0.81121,-1.090067 0.81121,-3.029372 v -7.009383 h 4.53772 v 14.196219 h -4.53772 v -2.053382 q -1.02669,1.242169 -2.18014,1.837904 -1.14076,0.583059 -2.52236,0.583059 -2.45899,0 -3.75186,-1.508349 -1.28019,-1.508348 -1.28019,-4.385617 z"
             id="path6585" />
          <path
             d="m 306.50872,-30.479162 v 1.29287 h -10.60914 q 0.16478,1.597075 1.15344,2.395612 0.98867,0.798537 2.76319,0.798537 1.4323,0 2.92797,-0.418281 1.50835,-0.430957 3.09275,-1.29287 v 3.498354 q -1.60975,0.608409 -3.2195,0.912614 -1.60975,0.31688 -3.2195,0.31688 -3.85326,0 -5.99537,-1.95198 -2.12943,-1.964656 -2.12943,-5.501035 0,-3.473004 2.09141,-5.463009 2.10408,-1.990006 5.77989,-1.990006 3.34625,0 5.34893,2.015356 2.01536,2.015356 2.01536,5.386958 z m -4.66448,-1.508348 q 0,-1.29287 -0.76051,-2.078732 -0.74783,-0.798537 -1.96465,-0.798537 -1.31822,0 -2.14211,0.747836 -0.82389,0.735161 -1.02669,2.129433 z"
             id="path6587" />
          <path
             d="m 316.69956,-34.636626 q -1.50835,0 -2.30688,1.090067 -0.78587,1.077391 -0.78587,3.118098 0,2.040706 0.78587,3.130773 0.79853,1.077392 2.30688,1.077392 1.483,0 2.26886,-1.077392 0.78586,-1.090067 0.78586,-3.130773 0,-2.040707 -0.78586,-3.118098 -0.78586,-1.090067 -2.26886,-1.090067 z m 0,-3.24485 q 3.66313,0 5.71652,1.977331 2.06605,1.97733 2.06605,5.475684 0,3.498354 -2.06605,5.475684 -2.05339,1.977331 -5.71652,1.977331 -3.6758,0 -5.75454,-1.977331 -2.06605,-1.97733 -2.06605,-5.475684 0,-3.498354 2.06605,-5.475684 2.07874,-1.977331 5.75454,-1.977331 z"
             id="path6589" />
          <path
             d="m 336.81511,-37.539246 h 4.53772 v 14.196219 h -4.53772 z m 0,-5.526385 h 4.53772 v 3.701157 h -4.53772 z"
             id="path6591" />
          <path
             d="m 359.98536,-31.98751 v 8.644483 h -4.56307 v -1.406947 -5.209505 q 0,-1.837903 -0.0887,-2.535039 -0.0761,-0.697136 -0.27886,-1.026691 -0.26618,-0.443632 -0.72248,-0.68446 -0.45631,-0.253504 -1.03937,-0.253504 -1.41962,0 -2.23084,1.102742 -0.81121,1.090067 -0.81121,3.029371 v 6.984033 h -4.53772 v -14.196219 h 4.53772 v 2.078732 q 1.02669,-1.242169 2.18014,-1.825228 1.15344,-0.595734 2.54771,-0.595734 2.45899,0 3.72651,1.508348 1.28019,1.508349 1.28019,4.385618 z"
             id="path6593" />
          <path
             d="m 369.14953,-41.569958 v 4.030712 h 4.67715 v 3.24485 h -4.67715 v 6.020718 q 0,0.988665 0.39293,1.343571 0.39293,0.34223 1.55905,0.34223 h 2.33224 v 3.24485 h -3.89129 q -2.68714,0 -3.81523,-1.115417 -1.11542,-1.128093 -1.11542,-3.815234 v -6.020718 h -2.25618 v -3.24485 h 2.25618 v -4.030712 z"
             id="path6595" />
          <path
             d="m 390.7734,-30.479162 v 1.29287 h -10.60914 q 0.16477,1.597075 1.15344,2.395612 0.98867,0.798537 2.76319,0.798537 1.4323,0 2.92797,-0.418281 1.50835,-0.430957 3.09275,-1.29287 v 3.498354 q -1.60975,0.608409 -3.2195,0.912614 -1.60975,0.31688 -3.2195,0.31688 -3.85326,0 -5.99537,-1.95198 -2.12943,-1.964656 -2.12943,-5.501035 0,-3.473004 2.09141,-5.463009 2.10408,-1.990006 5.77989,-1.990006 3.34625,0 5.34893,2.015356 2.01536,2.015356 2.01536,5.386958 z m -4.66448,-1.508348 q 0,-1.29287 -0.76051,-2.078732 -0.74783,-0.798537 -1.96465,-0.798537 -1.31822,0 -2.14211,0.747836 -0.82389,0.735161 -1.02669,2.129433 z"
             id="path6597" />
          <path
             d="m 394.20839,-43.065631 h 4.53772 v 19.722604 h -4.53772 z"
             id="path6599" />
          <path
             d="m 403.10637,-37.539246 h 4.53772 v 14.196219 h -4.53772 z m 0,-5.526385 h 4.53772 v 3.701157 h -4.53772 z"
             id="path6601" />
          <path
             d="m 421.66285,-25.751314 q -0.93796,1.242169 -2.06606,1.825228 -1.12809,0.583059 -2.61109,0.583059 -2.59841,0 -4.29689,-2.040707 -1.69847,-2.053381 -1.69847,-5.22218 0,-3.181474 1.69847,-5.209505 1.69848,-2.040706 4.29689,-2.040706 1.483,0 2.61109,0.583059 1.1281,0.583059 2.06606,1.837903 v -2.104083 h 4.56307 v 12.763922 q 0,3.422303 -2.16746,5.22218 -2.15478,1.812553 -6.26154,1.812553 -1.3309,0 -2.57307,-0.202803 -1.24217,-0.202803 -2.49701,-0.621085 v -3.536379 q 1.19147,0.684461 2.33223,1.014016 1.14077,0.34223 2.29421,0.34223 2.23084,0 3.2702,-0.97599 1.03937,-0.97599 1.03937,-3.054722 z m -2.99135,-8.834611 q -1.40694,0 -2.1928,1.039366 -0.78587,1.039366 -0.78587,2.940645 0,1.95198 0.76052,2.965996 0.76051,1.00134 2.21815,1.00134 1.41963,0 2.20549,-1.039366 0.78586,-1.039366 0.78586,-2.92797 0,-1.901279 -0.78586,-2.940645 -0.78586,-1.039366 -2.20549,-1.039366 z"
             id="path6603" />
          <path
             d="m 444.75707,-30.479162 v 1.29287 h -10.60914 q 0.16478,1.597075 1.15344,2.395612 0.98867,0.798537 2.7632,0.798537 1.43229,0 2.92797,-0.418281 1.50834,-0.430957 3.09274,-1.29287 v 3.498354 q -1.60975,0.608409 -3.2195,0.912614 -1.60975,0.31688 -3.2195,0.31688 -3.85326,0 -5.99536,-1.95198 -2.12944,-1.964656 -2.12944,-5.501035 0,-3.473004 2.09141,-5.463009 2.10408,-1.990006 5.77989,-1.990006 3.34625,0 5.34893,2.015356 2.01536,2.015356 2.01536,5.386958 z m -4.66447,-1.508348 q 0,-1.29287 -0.76052,-2.078732 -0.74783,-0.798537 -1.96465,-0.798537 -1.31822,0 -2.14211,0.747836 -0.82389,0.735161 -1.02669,2.129433 z"
             id="path6605" />
          <path
             d="m 462.4643,-31.98751 v 8.644483 h -4.56307 v -1.406947 -5.209505 q 0,-1.837903 -0.0887,-2.535039 -0.076,-0.697136 -0.27886,-1.026691 -0.26617,-0.443632 -0.72248,-0.68446 -0.45631,-0.253504 -1.03937,-0.253504 -1.41962,0 -2.23083,1.102742 -0.81121,1.090067 -0.81121,3.029371 v 6.984033 h -4.53772 v -14.196219 h 4.53772 v 2.078732 q 1.02669,-1.242169 2.18013,-1.825228 1.15344,-0.595734 2.54771,-0.595734 2.45899,0 3.72651,1.508348 1.28019,1.508349 1.28019,4.385618 z"
             id="path6607" />
          <path
             d="m 471.62847,-41.569958 v 4.030712 h 4.67715 v 3.24485 h -4.67715 v 6.020718 q 0,0.988665 0.39294,1.343571 0.39293,0.34223 1.55904,0.34223 h 2.33224 v 3.24485 h -3.89128 q -2.68715,0 -3.81524,-1.115417 -1.11541,-1.128093 -1.11541,-3.815234 v -6.020718 h -2.25619 v -3.24485 h 2.25619 v -4.030712 z"
             id="path6609" />
          <path
             d="m 493.25237,-30.479162 v 1.29287 h -10.60914 q 0.16478,1.597075 1.15344,2.395612 0.98867,0.798537 2.7632,0.798537 1.43229,0 2.92797,-0.418281 1.50834,-0.430957 3.09274,-1.29287 v 3.498354 q -1.60975,0.608409 -3.2195,0.912614 -1.60975,0.31688 -3.2195,0.31688 -3.85325,0 -5.99536,-1.95198 -2.12944,-1.964656 -2.12944,-5.501035 0,-3.473004 2.09141,-5.463009 2.10408,-1.990006 5.77989,-1.990006 3.34625,0 5.34893,2.015356 2.01536,2.015356 2.01536,5.386958 z m -4.66447,-1.508348 q 0,-1.29287 -0.76051,-2.078732 -0.74784,-0.798537 -1.96466,-0.798537 -1.31822,0 -2.14211,0.747836 -0.82389,0.735161 -1.02669,2.129433 z"
             id="path6611" />
          <path
             d="m 497.15632,-28.248328 h 4.56307 v 4.905301 h -4.56307 z"
             id="path6613" />
        </g>
      </g>
    </g>
  </g>
</svg>
